<?xml version="1.0" standalone="no"?>
<!DOCTYPE svg PUBLIC "-//W3C//DTD SVG 20010904//EN"
 "http://www.w3.org/TR/2001/REC-SVG-20010904/DTD/svg10.dtd">
<svg version="1.0" xmlns="http://www.w3.org/2000/svg"
 width="3000.000000pt" height="1500.000000pt" viewBox="0 0 3000.000000 1500.000000"
 preserveAspectRatio="xMidYMid meet">

<g transform="translate(0.000000,1500.000000) scale(0.100000,-0.100000)"
fill="#000000" stroke="none">
<path d="M6515 12524 c-505 -40 -1007 -155 -1470 -338 -158 -63 -510 -236
-655 -323 -239 -143 -432 -279 -640 -451 -176 -146 -516 -492 -662 -675 -576
-721 -910 -1527 -1015 -2449 -27 -234 -24 -772 5 -1008 104 -855 404 -1606
912 -2285 371 -496 875 -945 1407 -1256 55 -31 87 -56 80 -60 -45 -24 -560
-129 -632 -129 -20 0 -27 8 -40 52 -19 66 -19 175 0 222 11 27 13 42 5 56 -18
34 -40 39 -130 28 -143 -18 -594 -15 -745 6 -355 48 -591 135 -778 286 -48 39
-95 70 -105 70 -10 0 -27 -9 -37 -20 -24 -26 -17 -63 35 -186 80 -190 196
-388 306 -526 30 -37 54 -69 54 -71 0 -3 -99 -95 -220 -206 -135 -124 -220
-209 -220 -220 0 -33 33 -58 120 -90 257 -93 564 -151 801 -151 l89 0 0 -95
c0 -151 18 -171 182 -207 92 -20 130 -23 368 -23 285 0 358 8 630 65 255 53
458 117 800 250 638 249 1133 386 1602 445 144 18 514 21 652 4 457 -53 991
-199 1608 -440 482 -188 819 -278 1190 -318 125 -14 409 -14 518 0 152 18 219
38 259 74 l36 33 3 101 4 101 91 0 c225 0 541 62 786 154 93 34 121 61 104 99
-6 12 -107 110 -225 217 l-214 194 72 92 c113 145 229 351 310 552 40 99 42
125 12 146 -35 25 -51 20 -112 -34 -74 -65 -126 -100 -212 -143 -154 -78 -372
-137 -619 -169 -119 -15 -602 -16 -720 -1 -44 6 -90 6 -102 2 -30 -11 -37 -46
-18 -91 26 -64 11 -242 -21 -255 -39 -15 -667 117 -697 146 -4 4 48 41 115 82
510 308 991 747 1353 1234 498 668 803 1441 900 2280 22 189 30 629 16 828
-92 1251 -658 2385 -1609 3218 -668 586 -1518 986 -2392 1128 -279 45 -386 53
-740 56 -190 1 -367 1 -395 -1z m875 -118 c1124 -141 2091 -614 2860 -1402
727 -744 1168 -1680 1287 -2726 24 -216 24 -742 -1 -953 -100 -853 -398 -1607
-898 -2270 -398 -528 -884 -952 -1468 -1283 l-55 -31 -190 70 c-376 138 -940
317 -1089 344 -20 4 -35 9 -33 11 1 2 73 24 158 49 808 242 1519 749 2013
1438 265 368 469 808 580 1252 114 453 139 968 70 1445 -38 263 -140 631 -244
875 -506 1195 -1584 2050 -2862 2269 -257 45 -339 51 -663 51 -324 0 -405 -6
-665 -51 -1464 -250 -2661 -1348 -3029 -2777 -73 -282 -101 -498 -108 -829 -9
-427 34 -762 143 -1128 185 -616 497 -1136 958 -1595 458 -457 1030 -791 1654
-966 117 -33 148 -45 130 -50 -12 -4 -99 -28 -193 -54 -212 -58 -507 -155
-775 -252 -113 -41 -235 -86 -272 -98 l-67 -23 -123 70 c-357 204 -664 436
-957 722 -390 382 -683 780 -915 1245 -407 811 -562 1713 -450 2611 236 1889
1640 3454 3519 3924 222 55 474 98 720 121 198 19 783 13 965 -9z m-70 -981
c746 -103 1369 -375 1931 -840 150 -125 391 -369 512 -520 388 -482 648 -1062
750 -1670 30 -176 43 -315 31 -315 -5 0 -25 5 -44 10 -95 29 -132 31 -174 11
-23 -11 -51 -22 -63 -26 -25 -7 -29 -28 -14 -69 8 -19 6 -30 -9 -49 -19 -24
-19 -25 0 -42 40 -36 13 -89 -40 -78 -17 3 -36 0 -44 -6 -15 -13 -66 -5 -66
10 0 5 -15 9 -33 9 -28 0 -36 5 -49 33 -21 43 -96 81 -142 73 -26 -5 -38 0
-64 24 -18 16 -40 30 -48 30 -16 0 -54 -35 -54 -50 0 -22 -41 -9 -52 16 -10
22 -17 25 -45 21 -18 -3 -38 -10 -45 -16 -76 -63 -129 -101 -142 -101 -8 0
-28 -8 -44 -17 -25 -14 -32 -15 -46 -4 -9 7 -16 24 -16 36 0 28 -33 50 -89 60
-25 4 -53 16 -64 26 -33 30 -73 34 -108 8 l-32 -22 -42 23 c-40 22 -46 22 -89
10 -26 -7 -49 -17 -52 -21 -3 -5 -28 -9 -55 -9 -54 0 -86 -13 -107 -41 -7 -10
-22 -19 -35 -21 -14 -2 -27 -15 -36 -36 -18 -41 -48 -49 -103 -28 -65 24 -522
18 -558 -7 -28 -20 -58 -21 -81 -4 -20 15 -59 90 -59 114 0 18 -53 37 -135 50
-16 2 -39 8 -50 13 -36 15 -247 20 -375 9 -163 -15 -232 -37 -292 -93 -42 -40
-46 -48 -42 -78 8 -46 -21 -59 -115 -51 -69 6 -72 7 -106 49 -35 42 -38 67 -9
78 22 8 17 28 -15 64 -53 58 -100 62 -101 10 0 -10 -11 -20 -25 -24 -14 -3
-32 -19 -41 -35 -8 -16 -19 -29 -25 -29 -6 0 -9 -8 -8 -17 3 -33 -1 -41 -21
-46 -11 -3 -29 -20 -40 -39 -11 -19 -31 -40 -44 -46 -33 -15 -45 -90 -20 -127
14 -22 15 -30 4 -53 -8 -15 -14 -31 -15 -37 -2 -16 -28 -6 -46 17 l-17 22
-401 -69 -401 -69 0 -88 c0 -77 2 -88 18 -87 9 0 199 33 422 73 223 40 407 71
409 69 15 -12 -59 -29 -460 -107 l-446 -86 -304 81 c-167 45 -306 83 -308 86
-3 2 0 8 6 14 8 8 91 -8 294 -55 156 -37 287 -66 292 -66 4 0 7 37 7 83 l0 82
-232 54 c-128 30 -242 55 -254 55 -28 1 -54 24 -54 47 0 25 -30 39 -87 39 -26
0 -54 4 -62 9 -8 6 -27 3 -50 -7 -43 -18 -133 -35 -181 -33 -105 3 -104 4
-136 -35 -24 -29 -41 -38 -76 -44 -59 -9 -82 1 -88 36 -4 22 -15 34 -50 50
-27 13 -48 18 -51 12 -3 -5 -15 1 -25 15 -11 13 -36 30 -57 36 -21 7 -58 24
-83 38 -24 14 -52 22 -60 19 -9 -3 -35 -1 -57 5 -38 10 -42 9 -60 -15 -25 -34
-41 -33 -34 2 7 35 -1 49 -36 57 -15 4 -30 11 -33 16 -9 15 -46 10 -60 -8 -12
-17 -14 -17 -46 2 -22 12 -52 19 -89 20 -31 0 -63 6 -71 12 -26 22 -62 20 -72
-3 -12 -27 -62 -58 -79 -48 -50 28 -57 45 -57 133 0 172 33 440 81 661 270
1247 1206 2279 2438 2690 293 98 526 145 906 184 99 10 635 -3 745 -19z m294
-3456 c132 -18 146 -21 146 -35 0 -12 -61 -14 -372 -14 l-373 1 29 23 c16 13
43 29 60 34 36 13 399 6 510 -9z m171 -114 l0 -40 -87 -3 -88 -3 0 39 c0 21 3
42 7 46 4 4 43 5 88 4 l80 -3 0 -40z m-227 -17 l-3 -43 -85 0 -85 0 -3 28 c-6
53 0 57 93 57 l86 0 -3 -42z m-420 -10 l-3 -43 -85 0 -85 0 -3 28 c-6 53 0 57
93 57 l86 0 -3 -42z m207 -3 l0 -40 -85 0 -85 0 -3 43 -3 43 88 -3 88 -3 0
-40z m1733 5 c14 -11 29 -20 34 -20 6 0 37 -22 70 -50 46 -38 68 -50 94 -50
18 0 48 -9 66 -20 45 -27 94 -26 134 5 18 14 44 25 59 25 43 0 124 31 130 50
18 58 193 50 243 -12 30 -36 79 -57 160 -69 35 -5 86 -19 113 -30 48 -21 49
-23 49 -64 0 -63 -56 -101 -126 -85 -28 7 -52 5 -87 -7 -52 -17 -66 -11 -67
30 0 11 -8 17 -25 17 -16 0 -25 6 -25 16 0 12 -7 15 -31 12 -26 -4 -34 0 -55
31 -19 29 -34 38 -76 48 -88 20 -101 18 -119 -25 -14 -34 -23 -40 -95 -66 -43
-15 -108 -39 -144 -52 -42 -15 -87 -24 -127 -24 -54 0 -65 3 -86 25 -14 15
-39 28 -63 32 -43 6 -69 25 -89 64 -29 54 -150 75 -181 30 -7 -10 -35 -26 -61
-36 -26 -10 -68 -35 -92 -57 -24 -21 -51 -38 -59 -38 -24 0 -176 52 -192 66
-8 7 -42 17 -75 23 -62 12 -132 50 -142 79 -3 9 -13 25 -21 35 -31 36 -2 40
135 18 71 -12 143 -21 160 -21 27 0 33 -5 43 -35 14 -44 48 -55 88 -29 15 9
58 49 97 87 74 74 114 95 205 106 105 12 132 11 158 -9z m-1509 -94 c7 -8 11
-30 9 -48 l-3 -33 -95 0 -95 0 -3 33 c-5 52 10 62 98 62 55 0 81 -4 89 -14z
m211 -36 l0 -50 -85 0 -85 0 0 50 0 50 85 0 85 0 0 -50z m-640 -10 l0 -40 -90
0 -90 0 0 40 0 40 90 0 90 0 0 -40z m220 0 l0 -40 -95 0 -95 0 0 40 0 40 95 0
95 0 0 -40z m-21 -174 c7 -8 11 -30 9 -48 l-3 -33 -119 -3 c-128 -3 -136 0
-136 49 0 43 16 49 131 49 80 0 109 -4 118 -14z m331 -7 c14 -26 5 -69 -15
-70 -67 -6 -203 -4 -217 3 -21 10 -25 74 -5 81 6 3 60 6 119 6 99 1 108 -1
118 -20z m336 -3 c3 -13 1 -34 -6 -45 -10 -20 -18 -21 -128 -19 l-117 3 -3 28
c-7 55 -3 57 127 57 119 0 121 0 127 -24z m-1328 -5 c8 -5 12 -22 10 -42 l-3
-34 -120 0 -120 0 -3 34 c-2 20 2 37 10 42 7 5 58 9 113 9 55 0 106 -4 113 -9z
m320 -3 c17 -17 15 -65 -4 -72 -9 -3 -62 -6 -118 -6 -107 0 -126 7 -126 45 0
39 19 45 130 45 69 0 110 -4 118 -12z m-1879 -24 c6 -6 -14 -99 -22 -96 -4 1
-20 2 -37 2 -34 0 -37 11 -19 73 10 36 12 38 42 31 18 -3 34 -8 36 -10z m815
-30 c3 -25 3 -50 0 -55 -3 -5 -23 -9 -45 -9 l-39 0 0 55 0 55 39 0 c38 0 38 0
45 -46z m4316 -144 l0 -60 -1177 2 -1178 3 -3 44 c-2 24 -1 50 2 57 5 12 188
14 1181 14 l1175 0 0 -60z m-4013 34 c-3 -3 -12 -4 -19 -1 -8 3 -5 6 6 6 11 1
17 -2 13 -5z m1552 -18 c7 -8 11 -27 9 -43 l-3 -28 -127 -3 -128 -3 0 39 c0
21 3 42 7 45 3 4 57 7 118 7 86 0 115 -3 124 -14z m-1314 -46 l0 -35 -120 0
c-118 0 -120 0 -123 23 -7 50 -1 53 125 50 l118 -3 0 -35z m330 0 l0 -35 -120
0 c-118 0 -120 0 -123 23 -7 50 -1 53 125 50 l118 -3 0 -35z m345 0 l0 -41
-127 3 c-125 3 -128 3 -131 26 -7 50 -1 52 133 52 l125 0 0 -40z m318 3 l-3
-38 -127 -3 -128 -3 0 41 0 40 131 0 130 0 -3 -37z m1840 -135 l-3 -73 -119
-3 c-78 -2 -123 1 -132 9 -8 7 -14 31 -14 59 0 82 -4 80 142 80 l129 0 -3 -72z
m250 -1 l3 -68 -98 3 -98 3 -3 54 c-5 83 -6 82 100 79 l93 -3 3 -68z m-1240
-4 l-3 -68 -119 -3 c-78 -2 -123 1 -132 9 -14 12 -20 110 -7 122 3 4 64 7 135
7 l129 0 -3 -67z m322 12 l0 -56 -117 3 -118 3 -3 39 c-6 66 -5 66 123 66
l115 0 0 -55z m340 0 l0 -55 -130 0 -130 0 0 55 0 55 130 0 130 0 0 -55z m965
-20 l0 -70 -139 -3 c-93 -2 -143 1 -152 9 -18 15 -19 125 -1 133 6 2 75 4 152
3 l140 -2 0 -70z m293 21 c2 -22 1 -50 -3 -63 -5 -23 -7 -24 -118 -21 l-112 3
-3 63 -3 63 118 -3 118 -3 3 -39z m190 -5 c8 -5 12 -22 10 -42 l-3 -34 -85 0
-85 0 -3 28 c-5 45 12 57 87 57 36 0 72 -4 79 -9z m-2418 -61 l0 -51 -97 3
-98 3 -3 33 c-6 60 -2 62 103 62 l95 0 0 -50z m-2332 -47 l3 -73 -131 0 -130
0 0 68 c0 38 3 72 7 76 4 3 61 5 127 4 l121 -3 3 -72z m1765 68 c13 -1 17 -10
17 -41 l0 -40 -120 0 -120 0 0 39 c0 29 4 40 17 43 14 3 153 2 206 -1z m275
-28 l3 -33 -95 0 -96 0 0 28 c0 16 3 32 7 36 4 4 46 5 93 4 l85 -3 3 -32z
m-590 -25 l-3 -43 -109 -3 c-71 -2 -113 1 -122 9 -14 12 -19 60 -7 72 3 4 60
7 125 7 l119 0 -3 -42z m-1080 -20 l-3 -53 -130 0 -130 0 -3 53 -3 52 136 0
136 0 -3 -52z m370 43 c8 -5 12 -22 10 -42 l-3 -34 -140 0 -140 0 -3 28 c-7
56 -3 57 135 57 70 0 134 -4 141 -9z m347 -41 l0 -45 -140 0 -140 0 -3 48 -3
48 143 -3 143 -3 0 -45z m-1867 -47 l3 -73 -139 0 c-118 0 -141 2 -146 16 -11
28 -6 110 6 122 9 9 50 12 143 10 l130 -3 3 -72z m420 20 l3 -53 -170 0 -171
0 0 48 c0 27 3 52 7 56 4 3 79 5 167 4 l161 -3 3 -52z m3470 -35 l-3 -83 -130
0 -130 0 -3 69 c-2 38 -1 75 2 83 4 10 36 13 136 13 l131 0 -3 -82z m-4243 7
l0 -60 -117 -3 -118 -3 0 59 c0 32 3 62 7 66 4 3 57 5 117 4 l111 -3 0 -60z
m3895 -15 l0 -71 -132 3 -133 3 -3 54 c-5 84 -10 81 138 81 l130 0 0 -70z
m1288 3 l3 -63 -126 0 -125 0 0 65 0 66 123 -3 122 -3 3 -62z m-6244 41 c3 -9
6 -35 6 -59 0 -55 -16 -65 -104 -65 -93 0 -96 2 -96 69 0 32 3 61 7 64 3 4 46
7 94 7 70 0 88 -3 93 -16z m5936 -44 l0 -60 -125 0 -125 0 0 60 0 60 125 0
125 0 0 -60z m-5635 -5 l0 -50 -130 0 -130 0 -3 39 c-6 67 -7 67 135 64 l128
-3 0 -50z m425 -4 c0 -40 -4 -61 -13 -64 -29 -11 -299 -8 -313 4 -14 12 -20
100 -7 112 3 4 80 7 170 7 l163 0 0 -59z m4900 -1 l0 -61 -132 3 -133 3 -3 58
-3 57 136 0 135 0 0 -60z m990 0 l0 -50 -150 0 -150 0 0 50 0 50 150 0 150 0
0 -50z m295 3 c-19 -77 -20 -78 -134 -81 -67 -2 -108 1 -117 9 -14 12 -20 80
-7 92 3 4 65 7 136 7 l129 0 -7 -27z m-2412 -18 c-36 -25 -171 -76 -269 -100
-137 -35 -282 -54 -465 -61 -423 -16 -1256 67 -1309 131 -20 24 12 32 95 24
370 -37 895 -55 1165 -40 213 12 694 49 720 55 8 2 31 4 50 5 33 1 34 1 13
-14z m-2158 -105 l0 -65 -75 0 -75 0 -3 54 c-5 81 -3 82 80 79 l73 -3 0 -65z
m-217 3 l-3 -58 -95 0 -95 0 -3 58 -3 57 101 0 101 0 -3 -57z m-220 -4 c4 -65
-6 -70 -129 -67 l-104 3 -3 58 -3 58 118 -3 118 -3 3 -46z m-270 -16 l-3 -58
-150 0 -150 0 -3 58 -3 57 156 0 156 0 -3 -57z m-700 -20 l3 -63 -161 0 -160
0 0 59 c0 38 4 61 13 65 6 2 77 4 157 3 l145 -2 3 -62z m330 15 l-3 -53 -130
0 -130 0 -3 53 -3 52 136 0 136 0 -3 -52z m3341 -30 c12 -82 4 -98 -51 -98
-28 0 -28 0 -28 68 0 62 2 68 28 84 15 9 30 17 33 17 4 1 12 -32 18 -71z
m-4044 12 l0 -45 -182 -3 -183 -2 -6 25 c-3 14 -3 36 0 50 l6 25 183 -2 182
-3 0 -45z m1948 34 l47 -16 0 -63 0 -62 -37 -7 c-21 -3 -50 -6 -65 -6 -26 0
-28 3 -28 39 0 66 12 131 25 131 6 0 32 -7 58 -16z m3762 -59 l0 -70 -112 -3
-113 -3 0 69 c0 38 3 72 7 76 4 3 54 5 112 4 l106 -3 0 -70z m263 1 c2 -49 -1
-72 -10 -77 -15 -10 -179 -12 -202 -3 -12 5 -16 21 -16 73 0 37 3 71 7 75 4 3
54 5 112 4 l106 -3 3 -69z m240 -18 l3 -88 -91 0 -90 0 0 90 0 91 88 -3 87 -3
3 -87z m-1913 7 l0 -70 -85 0 -85 0 -3 59 c-5 88 -5 87 90 84 l83 -3 0 -70z
m333 2 l3 -68 -133 3 -133 3 -3 59 c-2 41 1 62 10 68 7 4 67 7 133 6 l120 -3
3 -68z m531 59 c7 -8 11 -37 9 -68 l-3 -53 -112 -3 -113 -3 0 64 c0 35 3 67 7
70 3 4 50 7 103 7 72 0 101 -4 109 -14z m279 -58 l-3 -73 -104 -3 c-77 -2
-107 1 -113 10 -9 16 -11 122 -1 131 3 4 55 7 115 7 l109 0 -3 -72z m-5864 46
c8 -22 7 -67 -2 -82 -7 -9 -44 -12 -153 -10 l-144 3 -3 39 c-6 67 -8 66 152
66 122 0 145 -2 150 -16z m5334 -51 l-3 -68 -114 -3 c-128 -3 -131 -2 -131 65
0 74 -2 73 132 73 l119 0 -3 -67z m-988 -18 l0 -74 -37 -10 c-21 -5 -55 -13
-75 -17 l-38 -6 0 71 0 70 58 16 c31 9 62 18 67 20 6 2 13 4 18 4 4 1 7 -33 7
-74z m-1775 30 c124 -12 115 -5 115 -102 0 -64 -3 -84 -12 -80 -7 2 -57 12
-110 22 -109 19 -102 11 -92 114 6 50 10 61 23 57 9 -2 43 -7 76 -11z m1568
-135 c-12 -12 -147 -29 -156 -20 -4 4 -7 36 -5 71 l3 64 80 16 80 16 3 -70 c2
-39 -1 -73 -5 -77z m-223 29 l0 -69 -121 0 -122 0 7 62 c3 34 8 63 11 66 5 6
207 19 218 14 4 -2 7 -34 7 -73z m-887 55 l67 -7 0 -80 0 -80 -92 7 c-51 4
-131 9 -177 13 l-83 6 6 45 c3 25 6 61 6 80 l0 35 103 -7 c56 -3 132 -9 170
-12z m-843 -48 c0 -24 -3 -58 -6 -75 l-6 -31 -84 0 -84 0 0 68 c0 38 3 72 7
75 3 4 44 7 90 7 l83 0 0 -44z m1450 -31 l0 -75 -105 0 -105 0 0 69 0 70 33 4
c17 2 65 5 105 5 l72 2 0 -75z m-2072 -13 l3 -73 -133 3 -133 3 -3 49 c-6 99
-10 97 136 94 l127 -3 3 -73z m402 3 l0 -76 -157 3 -158 3 -3 59 c-2 32 -1 65
2 72 4 11 39 14 161 14 l155 0 0 -75z m1390 0 l0 -75 -95 0 -95 0 0 75 0 75
95 0 95 0 0 -75z m-3145 -65 l0 -95 -140 0 -140 0 -3 84 c-2 46 -1 90 2 98 4
11 34 13 143 11 l138 -3 0 -95z m360 20 l0 -75 -145 0 -145 0 -3 64 c-2 35 -1
70 2 78 5 11 34 13 148 11 l143 -3 0 -75z m333 8 l-3 -73 -140 0 -140 0 -3 73
-3 72 146 0 146 0 -3 -72z m350 10 l-3 -63 -135 0 -135 0 -3 49 c-5 78 -9 76
143 76 l136 0 -3 -62z m3957 -48 l0 -85 -125 0 -125 0 -3 74 c-2 41 -1 80 2
88 4 11 31 13 128 11 l123 -3 0 -85z m-5337 7 c3 -78 -8 -100 -47 -95 -29 3
-43 35 -56 122 l-7 47 53 -3 54 -3 3 -68z m4836 6 c12 -88 9 -93 -69 -93 -76
0 -77 2 -79 88 l-1 57 35 6 c19 4 51 6 70 5 l35 -1 9 -62z m1034 -5 l3 -68
-111 0 -110 0 0 63 c0 35 3 67 7 71 4 4 52 5 107 4 l101 -3 3 -67z m-3326 -48
c-1 -35 -4 -65 -6 -68 -8 -7 -156 29 -156 38 0 11 20 110 25 127 3 9 23 6 72
-11 l68 -23 -3 -63z m2068 26 l0 -84 -37 -15 c-37 -14 -38 -14 -45 7 -3 11 -6
44 -7 71 0 48 1 51 42 77 23 14 43 27 45 27 1 1 2 -37 2 -83z m428 17 l-3 -68
-75 0 -75 0 -3 54 c-5 80 -4 81 83 81 l76 0 -3 -67z m562 -13 l0 -70 -110 0
-110 0 0 63 c0 35 3 67 7 70 3 4 53 7 110 7 l103 0 0 -70z m598 -3 l3 -68
-133 3 -133 3 -3 54 c-5 85 -10 82 135 79 l128 -3 3 -68z m327 -7 l0 -55 -145
0 -145 0 -3 34 c-2 19 -1 45 3 58 l6 24 142 -3 142 -3 0 -55z m-2033 -37 c3
-59 2 -63 -22 -72 -46 -18 -105 -30 -177 -37 l-73 -7 0 72 0 71 43 1 c23 0 80
10 127 23 47 12 88 19 92 16 3 -3 8 -33 10 -67z m2275 21 c-3 -31 -10 -61 -15
-66 -5 -5 -42 -8 -83 -6 l-74 3 -3 49 c-5 75 -4 76 94 76 l87 0 -6 -56z
m-4037 16 c52 -12 98 -24 101 -28 9 -12 -5 -137 -16 -136 -5 1 -58 14 -117 29
-120 31 -115 25 -102 119 5 36 10 45 23 42 9 -3 59 -15 111 -26z m1415 -79 c4
-39 4 -74 1 -80 -4 -6 -25 -15 -46 -21 -52 -14 -223 -30 -232 -22 -3 4 -8 38
-10 76 l-3 70 125 21 c69 12 132 23 141 24 14 1 18 -13 24 -68z m-1861 2 c-3
-87 2 -84 -126 -81 l-113 3 0 60 0 60 85 6 c47 3 101 5 120 5 l35 -1 -1 -52z
m731 32 c66 -8 121 -15 123 -15 1 0 2 -34 2 -75 l0 -75 -37 1 c-21 0 -78 6
-128 12 -75 10 -90 15 -89 30 0 9 1 44 2 77 1 33 3 60 5 60 1 0 57 -7 122 -15z
m789 -21 c11 -29 7 -142 -6 -150 -17 -11 -170 -18 -212 -10 l-36 7 0 69 0 70
53 1 c41 1 122 13 188 28 4 0 10 -6 13 -15z m-2189 -69 l0 -70 -130 0 -130 0
-3 59 c-5 91 -10 87 135 84 l128 -3 0 -70z m345 10 l0 -66 -127 3 -128 3 -3
49 c-5 78 -8 76 133 76 l125 0 0 -65z m1540 -14 c0 -45 -4 -73 -12 -78 -19
-11 -185 -16 -246 -6 l-54 8 -1 73 -2 72 158 0 157 0 0 -69z m-2192 -3 l-3
-63 -137 -3 -138 -3 0 66 0 65 140 0 141 0 -3 -62z m-330 -15 l-3 -68 -162 -3
-163 -2 0 70 0 70 165 0 166 0 -3 -67z m3880 -6 l3 -68 -68 3 -68 3 -3 62 -3
62 33 4 c18 2 49 4 68 3 l35 -1 3 -68z m-4250 -15 l3 -72 -173 2 -173 3 -3 59
c-2 32 -1 65 2 73 5 11 38 13 173 11 l168 -3 3 -73z m4597 13 l0 -60 -145 0
-145 0 -3 49 c-5 80 -10 77 150 74 l143 -3 0 -60z m335 -10 l0 -76 -147 3
-148 3 -3 59 c-2 32 -1 65 2 72 4 11 37 14 151 14 l145 0 0 -75z m258 -2 l-3
-68 -112 -3 -113 -3 0 71 0 70 115 0 116 0 -3 -67z m287 -3 l0 -65 -125 0
-125 0 -3 54 c-5 85 -9 82 130 79 l123 -3 0 -65z m-3638 29 l55 -32 -7 -56
c-4 -31 -9 -58 -11 -60 -4 -5 -94 28 -110 40 -10 8 3 139 14 139 2 0 29 -14
59 -31z m-2252 -39 l0 -55 -100 0 -100 0 -3 44 c-5 72 -5 72 105 69 l98 -3 0
-55z m4455 -11 l0 -50 -56 -26 c-31 -14 -77 -28 -101 -31 l-44 -5 3 48 3 48
90 38 c50 20 93 35 98 32 4 -2 7 -27 7 -54z m1730 6 l0 -55 -125 0 -125 0 0
55 0 55 125 0 125 0 0 -55z m280 0 l0 -55 -125 0 -125 0 0 55 0 55 125 0 125
0 0 -55z m-3972 -22 c20 -5 22 -11 22 -69 l0 -64 -52 1 c-81 1 -133 20 -132
47 0 12 1 41 2 63 l2 41 68 -7 c37 -3 77 -9 90 -12z m1740 -55 l9 -47 -41 -17
c-51 -20 -191 -30 -228 -15 -25 9 -28 16 -28 54 l0 44 83 6 c45 4 105 13 132
20 28 8 53 11 56 8 4 -3 11 -27 17 -53z m-1440 7 c8 -3 12 -26 12 -69 l0 -64
-33 -6 c-31 -6 -186 10 -197 20 -2 3 -6 33 -8 68 l-4 64 108 -5 c60 -2 115 -6
122 -8z m1136 -36 c4 -30 3 -56 -3 -62 -12 -12 -84 -26 -142 -27 -50 0 -59 10
-59 72 0 24 5 28 38 33 20 3 62 12 92 19 30 8 58 15 61 15 4 1 9 -22 13 -50z
m-2636 -8 c2 -19 1 -50 -3 -68 l-6 -33 -140 0 -140 0 3 63 3 62 105 6 c176 9
174 10 178 -30z m794 33 c3 -3 0 -26 -6 -52 l-12 -47 -157 -3 -157 -3 0 49 c0
27 3 52 7 55 8 8 317 9 325 1z m-1132 -59 l0 -56 -122 3 -123 3 -3 39 c-6 66
-6 66 128 66 l120 0 0 -55z m748 3 l-3 -53 -177 -3 -178 -2 0 55 0 55 181 0
180 0 -3 -52z m1992 -7 l0 -58 -57 -12 c-31 -6 -92 -11 -135 -11 l-78 0 0 54
0 53 107 12 c59 7 110 14 112 17 2 2 15 4 28 4 21 0 23 -4 23 -59z m2483 50
c4 0 7 -29 5 -63 l-3 -63 -165 -3 c-91 -1 -175 0 -187 3 -21 5 -23 12 -23 64
0 35 5 61 11 63 10 3 341 3 362 -1z m273 -4 c5 -4 -1 -34 -11 -65 l-20 -57
-100 0 -100 0 -3 59 c-2 34 1 62 7 66 15 9 218 6 227 -3z m-6428 -49 l3 -48
-76 0 -76 0 -15 36 c-25 59 -16 65 78 62 l83 -3 3 -47z m312 2 l0 -50 -125 0
-125 0 0 50 0 50 125 0 125 0 0 -50z m330 0 l0 -50 -150 0 -150 0 0 50 0 50
150 0 150 0 0 -50z m4148 -17 l3 -63 -130 0 -129 0 -11 52 c-7 28 -8 55 -4 59
7 7 175 17 248 15 17 -1 20 -9 23 -63z m320 0 l-3 -68 -130 0 -130 0 -3 54
c-5 84 -10 81 138 81 l131 0 -3 -67z m-2028 -1 l0 -58 -122 1 -123 0 -3 58 -3
57 126 0 125 0 0 -58z m2335 -2 l0 -55 -110 -3 c-152 -4 -155 -3 -155 57 0 26
3 51 7 55 4 3 63 5 132 4 l126 -3 0 -55z m323 -2 l-3 -63 -145 0 -145 0 -3 49
c-5 79 -11 76 153 76 l146 0 -3 -62z m-2381 -6 c-3 -30 -12 -59 -19 -64 -17
-11 -135 -4 -170 10 -25 10 -28 16 -28 61 l0 49 111 0 112 0 -6 -56z m1077 16
c3 -13 6 -42 6 -65 0 -39 -2 -42 -45 -63 -24 -12 -57 -20 -72 -18 -26 3 -28 6
-31 55 -3 50 -1 54 25 64 15 6 44 20 63 30 45 24 46 24 54 -3z m-2169 -29 l95
-23 0 -54 0 -55 -72 6 c-58 5 -142 26 -166 43 -2 1 0 28 3 59 7 49 10 56 26
52 11 -3 62 -15 114 -28z m2005 -72 l0 -64 -42 -17 c-50 -20 -206 -32 -228
-17 -9 6 -14 28 -15 63 l0 53 95 12 c52 7 113 16 135 21 22 6 43 10 48 11 4 1
7 -28 7 -62z m-2235 -22 l0 -60 -80 0 -80 0 0 55 0 55 55 6 c106 12 105 12
105 -56z m475 36 c53 -5 65 -9 64 -23 0 -10 -1 -34 -2 -53 l-2 -35 -64 0 c-35
0 -80 7 -101 16 -31 12 -36 19 -31 37 3 12 6 35 6 51 0 27 2 28 33 21 17 -4
61 -10 97 -14z m-676 3 c12 -5 16 -21 16 -65 l0 -60 -157 3 -158 3 -3 54 c-2
37 1 57 10 62 15 10 268 12 292 3z m2114 -75 c3 -63 2 -66 -25 -79 -17 -8 -75
-15 -146 -18 l-118 -4 3 63 3 63 125 22 c69 12 132 21 140 20 11 -1 16 -17 18
-67z m-2448 1 l0 -60 -162 2 -163 3 -3 44 c-5 73 -11 71 168 71 l160 0 0 -60z
m-1305 -20 l0 -65 -114 -3 c-128 -3 -131 -2 -131 65 0 75 -2 74 129 71 l116
-3 0 -65z m933 11 c2 -37 -1 -57 -10 -62 -15 -10 -208 -12 -232 -3 -12 5 -16
20 -16 58 0 29 3 56 7 60 4 3 61 5 127 4 l121 -3 3 -54z m1660 44 c19 -7 16
-101 -4 -109 -27 -10 -132 -7 -160 6 -23 11 -25 16 -20 48 3 19 6 42 6 50 0
13 14 15 83 12 45 -2 88 -5 95 -7z m-1948 -60 l0 -65 -150 0 -150 0 0 65 0 65
150 0 150 0 0 -65z m2790 8 c0 -93 0 -93 -104 -93 -51 0 -95 2 -97 4 -2 2 -2
34 -1 70 l4 66 99 0 99 0 0 -47z m2696 33 c3 -7 -9 -36 -27 -65 -28 -44 -36
-51 -65 -51 -57 0 -64 7 -64 65 0 33 5 55 13 58 6 3 40 6 75 6 44 1 64 -3 68
-13z m-5816 -61 l0 -65 -140 0 -140 0 0 65 0 65 140 0 140 0 0 -65z m2590 38
c0 -16 -3 -45 -6 -65 l-7 -38 -81 0 c-44 0 -98 3 -118 6 l-38 7 0 53 0 53 83
4 c45 1 101 4 125 5 40 2 42 1 42 -25z m260 -7 c0 -18 -3 -48 -6 -65 -6 -31
-7 -31 -73 -31 -36 0 -83 3 -103 6 l-38 7 0 53 0 53 73 4 c39 1 89 4 110 5 36
2 37 1 37 -32z m1418 -33 l3 -63 -110 0 c-123 0 -117 -4 -123 80 l-3 35 80 6
c44 3 96 5 115 5 l35 -1 3 -62z m357 -3 l0 -65 -155 0 -155 0 -3 54 c-5 86
-13 82 160 79 l153 -3 0 -65z m283 3 l-3 -68 -120 0 -120 0 -3 54 c-5 83 -9
81 128 81 l121 0 -3 -67z m277 7 l0 -55 -120 0 -120 0 -3 34 c-2 19 -1 45 3
58 5 23 6 24 123 21 l117 -3 0 -55z m263 -2 l3 -58 -121 0 -120 0 0 53 c0 30
3 57 7 61 4 3 57 5 117 4 l111 -3 3 -57z m180 0 l3 -58 -81 0 -80 0 0 53 c0
30 3 57 7 61 4 4 39 5 78 4 l70 -3 3 -57z m-1661 -8 c24 -79 4 -94 -165 -129
-75 -16 -92 -5 -92 60 0 56 -7 51 130 93 47 14 92 24 100 23 8 -1 20 -22 27
-47z m-2287 20 l55 -19 0 -48 c0 -43 -3 -48 -28 -57 -21 -8 -37 -5 -72 12 -48
23 -52 34 -39 101 8 36 11 37 84 11z m241 -51 c47 -6 92 -15 99 -19 9 -6 11
-21 6 -54 l-7 -46 -49 0 c-54 0 -148 18 -167 33 -14 10 -17 54 -7 81 7 19 13
19 125 5z m1757 -11 c7 -7 12 -36 12 -64 l0 -53 -57 -6 c-32 -4 -78 -13 -102
-21 -93 -30 -145 -6 -139 64 3 35 6 38 48 49 25 6 63 18 85 26 49 19 137 21
153 5z m-2172 -65 c-3 -26 -10 -51 -14 -55 -5 -5 -65 -7 -133 -6 l-124 3 -3
53 -3 52 142 0 142 0 -7 -47z m-318 -20 l3 -53 -165 0 -166 0 0 48 c0 27 3 52
7 56 4 3 77 5 162 4 l156 -3 3 -52z m-700 -21 l3 -63 -148 3 -148 3 -3 48 c-5
76 0 78 157 75 l136 -3 3 -63z m2828 62 c31 -8 42 -90 17 -116 -24 -23 -105
-38 -208 -38 l-82 0 -7 31 c-15 77 1 94 105 106 30 3 61 9 69 14 17 10 75 11
106 3z m-967 -21 c7 -6 0 -97 -7 -105 -8 -8 -215 10 -246 22 -19 7 -22 14 -18
47 3 21 9 41 15 45 11 7 248 -1 256 -9z m-1529 -43 l0 -51 -147 3 -148 3 -3
33 c-6 62 -7 62 153 62 l145 0 0 -50z m3558 2 c5 -69 -1 -72 -164 -72 -162 0
-164 1 -164 80 l0 40 163 -2 162 -3 3 -43z m350 -9 l-3 -58 -135 -3 c-180 -4
-180 -4 -180 57 0 26 3 51 7 54 3 4 76 7 160 7 l154 0 -3 -57z m577 -3 l0 -55
-110 -3 c-152 -4 -155 -3 -155 57 0 26 3 51 7 55 4 3 63 5 132 4 l126 -3 0
-55z m330 51 c7 -12 -24 -93 -39 -103 -13 -9 -218 -11 -240 -2 -12 4 -16 20
-16 53 0 26 3 51 7 54 10 11 281 8 288 -2z m-620 -56 l0 -50 -132 -3 -133 -3
0 56 0 56 133 -3 132 -3 0 -50z m-4840 -10 l0 -50 -150 0 -150 0 -3 39 c-6 68
-9 67 155 64 l148 -3 0 -50z m2461 28 c3 -12 2 -40 -3 -60 l-9 -38 -99 3 c-61
2 -105 7 -112 15 -7 7 -15 31 -19 54 -7 49 -11 48 139 49 94 0 98 0 103 -23z
m343 18 c11 -7 12 -19 5 -52 -12 -59 -35 -69 -160 -69 -118 0 -136 8 -138 65
-1 39 -1 40 49 51 60 14 224 17 244 5z m-3161 -53 l-3 -53 -115 0 -115 0 -3
39 c-6 66 -5 66 123 66 l116 0 -3 -52z m4183 -41 l3 -59 -77 -39 c-42 -21 -82
-39 -90 -39 -13 0 -37 72 -37 113 0 36 40 67 99 76 29 4 57 13 64 20 20 20 35
-10 38 -72z m-2221 24 c40 -5 45 -9 48 -33 2 -15 -2 -36 -8 -48 -10 -19 -17
-20 -98 -14 -99 8 -148 26 -137 52 4 9 9 26 10 37 2 11 4 21 4 23 1 4 102 -6
181 -17z m1990 -27 c6 -14 10 -50 10 -79 0 -50 -2 -56 -30 -70 -16 -8 -47 -15
-69 -15 -23 0 -61 -5 -85 -12 -31 -8 -59 -9 -92 -2 l-48 9 -12 60 c-6 33 -9
64 -5 68 4 4 34 12 67 17 32 5 91 18 129 29 102 27 124 26 135 -5z m-1830 -9
c14 -8 46 -14 72 -15 26 0 66 -7 89 -16 38 -16 41 -19 35 -48 -9 -48 -40 -68
-95 -61 -97 13 -152 29 -161 46 -16 28 6 110 29 109 3 -1 17 -7 31 -15z m-459
-45 c-1 -25 -8 -51 -13 -57 -11 -14 -280 -19 -312 -7 -12 4 -16 20 -16 54 0
60 -6 58 195 56 l150 -1 -4 -45z m2843 40 c28 0 28 -1 12 -22 -41 -56 -56 -85
-56 -105 0 -37 37 -28 94 23 28 25 62 56 76 68 l25 21 502 -5 503 -5 -38 -43
-37 -43 -225 -3 c-190 -3 -231 -6 -259 -20 -18 -10 -30 -20 -27 -23 3 -4 61
-8 128 -10 68 -2 158 -10 202 -18 43 -8 91 -15 107 -15 35 0 36 -7 5 -41 -21
-24 -36 -29 -152 -45 -84 -11 -230 -19 -416 -23 -263 -6 -336 -12 -276 -23 13
-2 136 -2 273 -1 388 6 438 5 463 -4 23 -9 21 -12 -48 -98 -39 -50 -80 -98
-92 -107 -30 -26 -104 -22 -238 12 -224 58 -306 60 -430 15 -45 -17 -70 -16
-145 4 -74 19 -404 -16 -481 -51 -35 -16 -38 -47 -6 -55 55 -15 304 -9 372 9
42 11 111 18 195 20 116 2 135 0 178 -19 26 -12 47 -26 47 -30 0 -5 -31 -27
-69 -51 l-68 -42 -317 0 c-544 0 -866 -34 -866 -90 0 -10 6 -22 13 -27 21 -17
179 -35 214 -24 107 32 716 41 791 12 18 -7 78 -23 133 -36 l100 -22 84 43
c96 51 120 55 109 22 -16 -54 -26 -67 -101 -138 -82 -78 -186 -139 -429 -251
-209 -97 -513 -199 -740 -248 l-101 -22 -104 20 c-397 76 -659 78 -1049 9 -96
-18 -195 -31 -220 -31 -53 2 -220 39 -390 88 -204 59 -384 131 -615 245 -211
105 -283 150 -451 286 -45 36 -107 121 -98 135 3 5 22 9 42 9 l37 1 -24 19
c-17 15 -38 20 -85 20 -58 0 -69 4 -164 60 -56 33 -106 69 -112 80 -14 27 -4
57 21 65 32 10 22 41 -31 94 -78 78 -75 80 101 73 172 -7 457 20 452 43 -1 5
-30 19 -64 32 -72 27 -167 29 -488 13 -214 -12 -217 -11 -223 45 l-3 30 85 8
c47 4 317 6 600 5 283 -2 538 1 566 5 l52 9 197 -221 c108 -122 198 -221 201
-221 2 0 -62 100 -142 222 -81 122 -149 229 -152 237 -4 12 9 13 84 7 158 -12
202 -30 303 -122 96 -88 157 -120 326 -169 299 -86 513 -100 1127 -70 324 16
445 29 633 70 368 80 485 121 485 171 0 21 -36 17 -260 -29 -305 -63 -488 -80
-1039 -98 l-346 -11 -285 41 c-416 61 -453 70 -598 142 -101 50 -121 63 -111
75 17 21 43 17 120 -16 137 -60 411 -119 734 -156 220 -26 602 -24 905 3 129
12 294 25 365 28 72 4 153 11 180 16 56 10 232 76 240 89 3 5 -2 21 -11 35
-16 25 -16 26 25 64 52 48 99 73 126 66 11 -3 33 -5 49 -5z m-3229 -55 l0 -50
-100 0 -100 0 -3 39 c-6 66 -4 67 105 64 l98 -3 0 -50z m-507 -12 l3 -53 -135
0 -136 0 0 48 c0 27 3 52 7 56 4 3 63 5 132 4 l126 -3 3 -52z m230 -1 l3 -53
-103 3 -103 3 -3 38 c-5 61 7 68 112 65 l91 -3 3 -53z m-550 35 c15 -10 16
-79 0 -95 -13 -13 -222 -18 -252 -6 -20 8 -23 100 -3 107 21 7 241 2 255 -6z
m-313 -52 l0 -50 -135 0 -135 0 -3 39 c-6 68 -7 67 140 64 l133 -3 0 -50z
m3413 43 c14 -14 16 -106 3 -126 -14 -22 -313 -44 -325 -23 -10 15 -9 112 0
121 5 5 52 12 104 14 52 2 106 9 120 14 34 15 84 14 98 0z m-918 -42 c12 -5
15 -17 10 -54 -5 -46 -6 -47 -45 -52 -37 -5 -179 19 -204 34 -11 7 -16 68 -6
78 8 7 227 2 245 -6z m213 4 l47 0 0 -60 c0 -56 -2 -60 -25 -66 -14 -4 -51 -4
-82 -2 -64 6 -92 31 -93 85 0 40 23 55 70 48 19 -2 56 -5 83 -5z m297 -44 c0
-33 -5 -58 -14 -65 -7 -6 -42 -14 -77 -17 -56 -5 -67 -3 -86 15 -13 12 -23 32
-23 44 0 12 -3 32 -6 44 -6 23 0 25 159 31 l47 2 0 -54z m-12 -1441 c173 -22
366 -58 591 -113 163 -39 189 -48 161 -53 -63 -13 -82 -80 -34 -118 30 -24 55
-26 87 -10 45 24 50 67 12 104 -13 14 -23 25 -21 25 2 0 66 -18 142 -41 206
-60 420 -131 684 -227 364 -132 568 -192 841 -247 298 -61 677 -92 919 -77 74
5 138 7 143 5 4 -2 7 -179 7 -393 l0 -388 -67 -16 c-306 -69 -763 -33 -1213
95 -168 47 -357 112 -525 179 -859 344 -1608 512 -2139 479 -522 -32 -1088
-175 -1816 -459 -286 -112 -454 -168 -653 -220 -397 -104 -797 -135 -1081 -85
-141 25 -127 -25 -124 423 l3 387 100 -5 c262 -13 536 3 805 46 316 51 570
120 959 260 672 244 1211 390 1651 448 143 19 418 19 568 1z m-4678 -275 c240
-79 475 -110 827 -110 144 0 244 -4 248 -10 14 -23 -189 -122 -419 -203 -92
-33 -139 -55 -162 -78 l-32 -31 -6 -141 c-3 -78 -9 -200 -12 -271 l-6 -129
-142 6 c-191 7 -363 39 -585 109 l-74 23 212 193 c141 129 211 199 211 213 0
11 -32 57 -71 102 -107 123 -212 287 -276 429 -12 28 -12 27 80 -18 50 -26
143 -63 207 -84z m9040 22 c-67 -131 -152 -259 -239 -358 -40 -46 -71 -91 -71
-103 0 -22 23 -45 265 -265 77 -70 141 -131 143 -136 4 -11 -128 -53 -263 -85
-149 -35 -300 -55 -418 -55 l-105 0 -6 73 c-3 39 -8 158 -12 262 -4 132 -10
198 -20 217 -19 36 -81 78 -117 78 -66 0 -493 187 -484 213 3 9 66 12 248 14
359 2 593 34 834 114 66 22 156 60 200 83 44 24 84 44 88 45 4 0 -15 -43 -43
-97z"/>
<path d="M6899 12245 c-2 0 -37 -580 -35 -582 1 -2 100 -8 220 -15 240 -13
236 -14 236 49 l0 31 -87 6 c-49 4 -123 9 -165 12 l-78 6 0 80 0 80 155 -7
155 -7 0 46 c0 25 -1 46 -2 46 -132 8 -292 21 -296 24 -2 3 -1 32 3 66 l7 61
152 -7 c83 -3 154 -8 157 -10 6 -3 19 86 14 94 -2 2 -423 28 -436 27z"/>
<path d="M6420 12222 c-96 -8 -176 -16 -178 -17 -2 -2 0 -24 3 -49 l7 -46 89
7 89 6 0 -26 c0 -36 29 -386 36 -424 5 -32 6 -33 55 -33 36 0 51 4 56 15 3 9
-3 118 -14 243 -11 125 -18 229 -16 232 2 2 40 7 84 11 44 4 83 10 86 12 3 3
2 24 -2 46 l-7 41 -56 -1 c-32 -1 -136 -8 -232 -17z"/>
<path d="M5969 12158 l-36 -9 42 -177 c58 -240 59 -246 41 -280 -38 -73 -173
-76 -209 -5 -8 15 -34 109 -57 208 -24 99 -46 184 -50 188 -8 9 -80 -1 -100
-13 -10 -6 -2 -51 34 -200 56 -228 74 -272 129 -308 82 -54 261 -25 338 54 34
35 34 36 33 122 0 65 -10 125 -37 237 -20 83 -39 160 -42 173 -6 24 -25 27
-86 10z"/>
<path d="M7951 12079 c-132 -40 -221 -192 -209 -353 9 -112 59 -174 177 -222
208 -86 401 60 405 306 1 66 -3 81 -30 130 -33 59 -98 111 -162 130 -55 17
-143 21 -181 9z m179 -118 c52 -27 83 -92 76 -160 -13 -112 -76 -203 -151
-217 -105 -19 -195 56 -195 164 0 99 65 211 134 231 39 12 90 5 136 -18z"/>
<path d="M5185 11926 c-115 -46 -210 -87 -210 -92 1 -26 29 -85 39 -81 6 3 42
17 79 32 39 16 72 24 77 19 4 -5 47 -107 95 -226 l87 -217 50 19 c28 10 52 21
55 23 2 3 -35 101 -83 218 -47 118 -88 219 -91 225 -2 6 31 25 76 44 45 18 81
34 81 36 0 12 -33 84 -39 83 -3 0 -100 -38 -216 -83z"/>
<path d="M8462 11644 c-67 -141 -122 -260 -122 -264 0 -8 98 -55 103 -49 2 2
25 51 52 109 27 58 50 107 52 109 2 2 53 -19 114 -48 62 -28 113 -50 114 -49
9 10 35 69 35 78 0 5 -25 21 -55 35 -30 14 -80 36 -110 50 l-54 24 29 63 c16
35 34 62 41 60 6 -1 66 -27 132 -57 66 -30 121 -55 122 -55 9 0 35 84 28 90
-11 10 -342 160 -352 160 -4 0 -63 -115 -129 -256z"/>
<path d="M4762 11734 l-42 -26 19 -32 c10 -17 71 -131 136 -253 64 -123 121
-223 126 -223 8 0 87 37 97 45 7 6 -269 510 -280 512 -7 1 -32 -9 -56 -23z"/>
<path d="M4480 11577 c-52 -34 -141 -92 -197 -128 l-102 -65 28 -42 27 -41 67
44 c36 25 71 45 77 45 5 0 69 -89 141 -197 73 -109 133 -200 135 -201 3 -5 94
57 94 64 0 2 -58 92 -130 199 -71 107 -130 199 -130 204 0 5 31 29 70 53 l69
44 -27 41 -28 42 -94 -62z"/>
<path d="M9326 11466 c-14 -19 -26 -36 -26 -38 0 -2 29 -26 65 -52 36 -26 65
-52 65 -57 0 -6 -63 -93 -140 -194 -77 -101 -140 -188 -140 -193 0 -5 20 -23
44 -40 l43 -31 148 194 c92 123 151 192 158 188 7 -4 39 -26 72 -50 l60 -44
27 33 c15 18 26 37 25 42 -3 10 -357 275 -368 276 -4 0 -18 -15 -33 -34z"/>
<path d="M3920 11174 c-163 -92 -201 -259 -78 -334 55 -33 116 -27 229 25 111
51 150 56 173 23 20 -28 20 -42 0 -85 -34 -71 -119 -102 -187 -67 l-31 17 -33
-39 c-18 -22 -31 -43 -30 -49 2 -5 23 -20 48 -33 36 -19 55 -23 106 -20 54 3
71 10 120 45 134 94 170 218 91 309 -67 76 -131 83 -253 28 -155 -70 -162 -72
-185 -48 -29 28 -18 64 31 109 41 37 82 45 121 24 17 -9 26 -5 59 27 22 21 38
43 36 48 -2 5 -19 17 -37 28 -51 27 -125 24 -180 -8z"/>
<path d="M9660 10895 l-205 -205 65 -66 c36 -36 109 -106 163 -156 l98 -91 29
28 c17 16 30 32 30 35 0 4 -52 58 -115 121 l-115 113 57 58 57 58 71 -68 c38
-37 87 -83 108 -102 l37 -34 32 32 33 32 -105 105 -105 105 48 47 47 48 113
-113 113 -112 34 35 34 35 -149 150 c-82 83 -154 150 -160 150 -6 0 -102 -92
-215 -205z"/>
<path d="M3505 10778 c-19 -23 -32 -45 -28 -48 5 -4 70 -57 145 -119 76 -62
140 -116 143 -120 2 -4 -98 7 -222 25 -124 18 -230 31 -234 28 -4 -2 -21 -22
-39 -43 l-31 -40 228 -186 228 -187 32 37 c18 21 33 41 33 44 0 4 -65 60 -145
125 -80 65 -144 120 -143 121 2 1 91 -10 198 -26 259 -38 250 -38 292 14 l35
42 -228 187 -228 187 -36 -41z"/>
<path d="M10203 10535 c-97 -30 -200 -115 -236 -195 -30 -66 -28 -151 6 -216
31 -60 91 -117 142 -134 41 -13 160 -10 174 5 5 6 1 31 -11 62 -19 48 -22 51
-45 42 -65 -25 -137 3 -166 64 -33 70 -18 118 62 189 120 108 231 114 291 16
24 -39 25 -78 5 -118 -15 -28 -14 -29 31 -66 50 -41 51 -41 80 23 51 116 -41
287 -177 327 -63 19 -99 19 -156 1z"/>
<path d="M3089 10244 c-26 -39 -29 -48 -18 -59 11 -10 434 -285 474 -307 6 -4
24 15 42 42 l32 48 -162 104 c-89 58 -201 130 -249 161 l-87 57 -32 -46z"/>
<path d="M10480 9919 c-140 -72 -256 -132 -258 -134 -2 -2 9 -26 25 -53 l29
-51 113 60 c89 47 116 58 122 47 15 -22 99 -186 99 -191 0 -3 -49 -32 -110
-64 -60 -32 -110 -62 -110 -67 0 -5 11 -29 25 -52 l25 -43 258 131 c141 72
259 133 261 135 5 3 -40 103 -46 103 -2 0 -48 -22 -103 -50 -55 -27 -102 -50
-104 -50 -6 0 -106 189 -106 200 0 5 45 32 100 60 55 28 100 52 100 54 0 10
-53 96 -58 96 -4 0 -122 -59 -262 -131z"/>
<path d="M2797 9748 c-3 -7 -42 -96 -86 -197 -45 -101 -80 -186 -78 -187 4 -4
542 -232 543 -231 18 25 172 403 167 408 -4 4 -24 15 -43 23 l-36 15 -64 -147
c-35 -81 -65 -149 -66 -151 -3 -4 -134 48 -146 58 -4 3 20 66 52 139 l59 134
-42 18 c-23 11 -45 16 -49 12 -3 -4 -30 -61 -58 -127 -29 -66 -55 -123 -59
-127 -6 -6 -103 30 -116 44 -4 3 21 70 55 148 34 78 60 143 58 145 -3 3 -79
35 -83 35 -2 0 -5 -6 -8 -12z"/>
<path d="M10777 9330 c-147 -48 -271 -90 -274 -93 -6 -6 15 -77 27 -90 4 -5
85 17 180 47 95 31 175 55 177 52 4 -3 -177 -221 -260 -314 -20 -22 -20 -23
-3 -77 9 -30 20 -55 23 -55 3 0 130 41 283 90 l278 90 -16 51 c-14 42 -19 49
-37 45 -11 -3 -95 -30 -187 -60 -197 -63 -197 -80 0 149 l129 150 -17 49 c-9
28 -21 51 -26 52 -5 1 -130 -37 -277 -86z"/>
<path d="M2610 9109 c-65 -27 -86 -69 -139 -267 -22 -84 -39 -152 -38 -152 1
0 131 -33 289 -74 l286 -73 15 57 14 57 -119 28 c-78 19 -118 33 -118 42 0 22
26 77 42 91 9 7 72 32 140 56 l123 44 17 63 c10 34 16 64 14 66 -7 8 -225 -69
-257 -91 l-37 -25 -6 41 c-9 57 -30 93 -70 117 -40 25 -120 35 -156 20z m100
-124 c41 -21 45 -48 20 -154 -18 -75 -25 -91 -38 -87 -10 3 -39 10 -67 17 -27
6 -54 15 -58 19 -14 13 34 172 59 197 27 27 44 29 84 8z"/>
<path d="M10935 8716 c-145 -36 -224 -128 -225 -262 0 -118 54 -219 144 -267
35 -19 56 -22 146 -22 87 0 113 4 154 23 117 53 168 129 167 249 0 216 -164
334 -386 279z m205 -128 c54 -28 80 -74 80 -142 0 -101 -71 -156 -211 -164
-66 -4 -82 -1 -117 18 -98 55 -109 198 -20 262 72 51 195 63 268 26z"/>
<path d="M2549 8447 c-121 -34 -192 -136 -193 -277 -1 -91 25 -152 86 -205 60
-51 125 -70 238 -70 87 0 100 3 149 30 96 53 148 158 139 280 -13 151 -120
241 -298 251 -44 2 -94 -1 -121 -9z m232 -139 c63 -35 84 -69 84 -137 0 -110
-79 -168 -214 -159 -125 9 -196 71 -194 169 1 64 28 109 83 137 39 20 55 23
122 19 56 -4 89 -12 119 -29z"/>
<path d="M10770 7795 l0 -205 50 0 50 0 0 145 0 145 245 0 245 0 0 60 0 60
-295 0 -295 0 0 -205z"/>
<path d="M2845 7658 c3 -68 9 -135 11 -150 5 -24 2 -28 -16 -28 -39 0 -363
-20 -417 -26 l-53 -5 0 -55 0 -54 38 0 c48 0 546 31 550 35 1 1 -3 93 -9 204
l-13 201 -49 0 -49 0 7 -122z"/>
<path d="M10922 7459 c-155 -30 -252 -219 -196 -382 69 -202 423 -249 546 -72
59 84 71 221 28 304 -39 76 -109 123 -218 147 -74 15 -97 16 -160 3z m183
-130 c116 -33 158 -185 73 -269 -42 -43 -97 -55 -181 -41 -81 13 -116 30 -150
71 -70 83 -26 219 80 248 42 12 116 8 178 -9z"/>
<path d="M2920 7253 c-14 -3 -28 -8 -33 -12 -4 -4 6 -70 21 -148 l29 -141
-239 -47 c-264 -53 -250 -45 -228 -126 l10 -36 283 56 c250 51 282 59 284 76
2 11 -14 101 -35 200 -39 189 -38 188 -92 178z"/>
<path d="M10727 6764 c-127 -39 -212 -211 -186 -376 6 -35 15 -68 22 -75 10
-10 199 -73 218 -73 8 0 79 206 79 227 0 11 -50 33 -76 33 -7 0 -20 -24 -29
-52 -10 -29 -20 -56 -24 -60 -4 -4 -23 -3 -43 2 -32 9 -37 15 -43 50 -21 127
50 220 167 220 112 0 217 -63 239 -142 20 -76 -28 -167 -101 -189 -33 -10 -39
-16 -44 -48 -11 -67 -9 -71 32 -71 83 1 148 53 191 153 43 100 37 198 -17 279
-71 107 -249 164 -385 122z"/>
<path d="M3033 6718 c-18 -6 -33 -14 -33 -18 0 -7 74 -219 99 -282 10 -26 9
-27 -67 -52 -42 -14 -79 -23 -82 -18 -4 4 -26 62 -50 130 -23 67 -46 125 -51
128 -5 3 -27 -1 -49 -7 -47 -14 -48 3 16 -174 24 -66 42 -120 41 -121 -1 -1
-30 -10 -64 -22 l-61 -20 -43 116 c-23 65 -48 131 -55 149 l-13 32 -46 -16
c-36 -12 -45 -19 -40 -32 4 -9 36 -97 72 -196 36 -99 68 -183 72 -187 4 -5
542 174 558 186 2 2 -116 333 -138 389 -12 29 -17 30 -66 15z"/>
<path d="M10328 6026 l-26 -53 109 -54 110 -54 101 -172 c56 -94 105 -170 110
-167 5 3 20 28 34 56 l25 50 -71 110 c-39 61 -69 113 -66 115 3 3 61 8 129 12
68 5 129 11 136 15 12 8 65 106 59 111 -2 1 -91 -5 -198 -14 l-195 -17 -116
57 -116 57 -25 -52z"/>
<path d="M3043 6006 c-156 -24 -286 -45 -289 -49 -3 -3 6 -28 22 -54 l27 -49
226 37 c124 21 226 37 227 36 2 -1 -67 -75 -152 -164 -85 -90 -154 -168 -154
-175 0 -7 13 -34 28 -59 l27 -47 213 230 212 230 -29 52 c-22 37 -36 51 -53
52 -13 1 -150 -17 -305 -40z"/>
<path d="M9690 5215 c0 -2 29 -52 65 -112 36 -59 65 -113 65 -120 0 -7 -32
-65 -71 -130 -39 -65 -73 -122 -76 -126 -3 -4 60 25 139 64 l144 72 117 -67
c64 -36 119 -66 122 -66 3 0 -13 33 -35 73 -23 39 -53 95 -67 123 l-25 50 77
112 c42 62 74 112 72 112 -2 0 -65 -31 -138 -69 l-134 -70 -127 79 c-71 43
-128 77 -128 75z"/>
<path d="M3530 5165 c0 -4 30 -56 66 -117 l66 -109 -72 -122 c-40 -67 -75
-126 -77 -130 -3 -4 58 24 136 62 l140 71 48 -28 c26 -16 84 -48 127 -72 l80
-43 -21 34 c-50 82 -116 205 -116 214 0 6 32 59 72 118 39 59 68 107 65 107
-4 0 -64 -30 -134 -67 l-127 -66 -101 61 c-55 33 -112 68 -126 77 -14 10 -26
14 -26 10z"/>
<path d="M4551 4441 c-29 -10 -63 -29 -75 -41 l-21 -22 45 22 c24 13 83 31
130 41 l85 18 -55 0 c-30 0 -79 -8 -109 -18z"/>
<path d="M9006 4440 c45 -10 101 -28 125 -39 57 -28 62 -19 7 12 -54 32 -110
47 -168 46 -41 -1 -38 -2 36 -19z"/>
<path d="M4700 4396 c-60 -16 -114 -43 -136 -67 -14 -16 -6 -14 47 10 35 17
107 39 159 50 l95 20 -60 0 c-33 0 -80 -6 -105 -13z"/>
<path d="M8852 4391 c109 -24 154 -38 198 -63 l35 -20 -34 31 c-46 41 -110 62
-206 67 l-80 4 87 -19z"/>
<path d="M4805 4336 c-64 -15 -138 -53 -167 -83 -21 -22 -16 -21 52 11 47 22
120 45 195 60 l120 25 -75 -1 c-41 0 -97 -5 -125 -12z"/>
<path d="M8695 4335 c117 -22 197 -45 259 -76 51 -25 56 -26 40 -8 -53 59
-177 100 -295 98 l-74 -1 70 -13z"/>
<path d="M4955 4283 c-91 -19 -181 -63 -225 -108 l-35 -37 65 35 c75 41 192
77 333 102 53 10 97 19 97 21 0 10 -173 1 -235 -13z"/>
<path d="M8440 4297 c3 -2 56 -15 119 -26 138 -27 249 -61 318 -100 69 -38 51
-7 -25 43 -81 53 -167 77 -302 83 -63 3 -113 3 -110 0z"/>
<path d="M5137 4229 c-87 -10 -199 -43 -256 -76 -45 -26 -124 -93 -118 -100 2
-2 29 12 60 30 31 19 92 46 135 60 75 25 307 76 355 78 20 1 20 2 -3 9 -31 10
-85 10 -173 -1z"/>
<path d="M8320 4232 c-19 -6 -5 -11 60 -21 153 -23 310 -68 405 -116 l90 -46
-40 41 c-49 50 -135 94 -235 119 -84 21 -242 34 -280 23z"/>
<path d="M5220 4160 c-95 -20 -173 -48 -240 -87 -47 -28 -140 -110 -140 -124
0 -4 24 8 52 27 109 71 267 122 532 170 77 14 142 27 145 30 13 13 -273 1
-349 -16z"/>
<path d="M8060 4177 c3 -3 79 -19 170 -36 256 -47 412 -100 540 -182 30 -19
27 -14 -20 35 -38 40 -80 69 -135 97 -125 61 -214 81 -400 86 -88 3 -158 3
-155 0z"/>
<path d="M5770 10799 c0 -5 12 -14 28 -20 15 -5 34 -19 42 -32 7 -12 85 -184
171 -382 87 -198 162 -361 167 -363 5 -1 80 153 167 343 87 190 169 362 183
381 13 20 39 42 58 50 19 8 32 19 29 24 -8 13 -255 13 -255 1 0 -5 15 -13 33
-16 42 -9 67 -32 67 -63 0 -25 -190 -461 -201 -462 -3 0 -52 108 -109 241
-115 266 -115 266 -41 284 23 6 39 14 35 18 -12 12 -374 8 -374 -4z"/>
<path d="M6716 10801 c-3 -5 11 -11 32 -15 21 -3 46 -12 57 -20 19 -14 20 -27
20 -351 l0 -337 -24 -19 c-13 -10 -38 -19 -57 -19 -19 0 -34 -4 -34 -10 0 -6
77 -10 210 -10 133 0 210 4 210 10 0 6 -15 10 -33 10 -18 0 -43 7 -55 16 -22
15 -22 15 -22 354 0 378 -3 365 71 376 21 4 39 10 39 15 0 12 -407 12 -414 0z"/>
<path d="M7260 10705 c0 -58 3 -105 8 -105 4 0 19 27 33 59 34 75 62 94 151
99 l68 4 0 -341 c0 -328 -1 -342 -20 -361 -12 -12 -33 -20 -55 -20 -19 0 -35
-4 -35 -10 0 -6 77 -10 210 -10 133 0 210 4 210 10 0 6 -15 10 -34 10 -19 0
-44 9 -57 19 l-24 19 -3 341 -3 341 67 0 c99 0 141 -33 177 -142 4 -10 11 -18
17 -18 6 0 10 40 10 105 l0 105 -360 0 -360 0 0 -105z"/>
<path d="M5338 8797 c-23 -19 -58 -73 -58 -91 0 -9 -16 -22 -35 -30 -49 -21
-77 -69 -72 -126 2 -30 -1 -50 -10 -58 -15 -14 -17 -32 -4 -32 12 0 13 -101 0
-116 -6 -7 -16 -35 -24 -62 l-13 -50 46 -7 c51 -8 57 -2 67 57 6 36 8 38 46
38 44 0 46 -4 25 -72 l-13 -46 54 -7 c30 -4 56 -5 57 -3 2 2 7 39 12 83 8 72
11 80 32 83 21 3 22 1 22 -82 0 -84 1 -86 23 -81 12 2 123 16 247 30 323 36
301 32 288 61 -9 18 -8 30 2 49 11 20 11 27 -1 41 -9 11 -14 45 -15 98 -1 96
-12 126 -53 156 -21 14 -31 30 -31 47 0 31 -59 93 -89 93 -26 0 -27 -12 -1
-28 14 -8 20 -23 20 -47 0 -31 -3 -35 -25 -35 -22 0 -47 27 -44 47 1 4 0 24
-1 43 -2 35 -2 35 -11 -9 -17 -86 -64 -92 -67 -9 -2 50 -11 64 -13 20 -3 -59
-14 -79 -35 -61 -7 6 -12 15 -9 18 2 4 0 21 -5 37 -8 28 -8 28 -11 4 -1 -14
-2 -32 -3 -40 -1 -8 -8 -15 -16 -15 -8 0 -14 7 -12 17 1 9 -2 19 -8 23 -6 3
-10 -3 -10 -15 0 -25 -29 -38 -41 -19 -5 8 -9 30 -10 49 l-1 35 -15 -42 c-15
-44 -26 -52 -40 -30 -8 12 -8 15 -12 57 -3 24 -3 24 -11 -4 -5 -16 -7 -33 -5
-37 3 -3 -1 -12 -9 -18 -15 -13 -31 1 -37 32 -2 10 -8 18 -14 17 -5 -1 -9 -7
-7 -14 1 -7 -5 -19 -14 -27 -13 -11 -17 -10 -25 2 -12 20 -11 53 3 67 16 16 5
25 -14 9z m463 -497 c4 -25 6 -46 5 -47 -1 -1 -21 -5 -44 -9 l-42 -7 0 51 c0
45 3 51 23 55 44 9 52 3 58 -43z"/>
<path d="M5915 8215 c-55 -7 -100 -14 -101 -14 0 -1 2 -23 6 -51 5 -36 3 -50
-6 -50 -6 0 -26 -3 -43 -6 l-31 -6 0 51 0 51 -37 -1 c-21 0 -83 -6 -138 -12
l-100 -12 -3 -62 c-2 -35 -1 -63 1 -63 7 0 561 79 593 85 26 4 31 9 27 25 -3
11 -9 20 -14 20 -4 0 -9 12 -11 28 -4 33 -11 34 -143 17z"/>
<path d="M5238 8213 c6 -2 18 -2 25 0 6 3 1 5 -13 5 -14 0 -19 -2 -12 -5z"/>
<path d="M5117 8203 c-4 -3 -7 -19 -7 -35 0 -16 -7 -40 -16 -53 -19 -28 -30
-24 145 -55 169 -30 161 -32 161 40 0 54 -2 60 -22 65 -33 7 -242 45 -249 45
-3 0 -9 -3 -12 -7z m168 -35 c2 -2 -2 -24 -8 -51 -9 -41 -14 -47 -36 -47 -47
0 -54 11 -40 64 12 48 12 48 47 42 19 -3 36 -6 37 -8z"/>
<path d="M5780 8049 c-168 -26 -308 -49 -312 -49 -5 0 -8 -34 -8 -76 0 -74 1
-76 23 -71 32 8 652 127 661 127 4 0 -2 13 -13 29 -12 16 -21 43 -21 60 0 19
-5 31 -12 30 -7 -1 -150 -23 -318 -50z m64 -40 c13 -65 10 -70 -36 -67 l-43 3
-3 48 -3 47 39 0 c36 0 40 -3 46 -31z"/>
<path d="M5060 8055 c-7 -8 -10 -21 -7 -29 3 -7 -1 -31 -8 -52 -13 -37 -12
-39 8 -45 43 -12 102 -21 96 -14 -4 3 -1 27 5 53 12 46 14 47 47 44 19 -2 36
-5 38 -7 2 -2 -2 -26 -8 -53 -12 -46 -13 -48 -44 -45 -18 1 13 -8 68 -22 144
-35 135 -37 135 45 0 64 -2 70 -22 75 -13 3 -77 16 -143 30 -66 14 -127 28
-136 31 -9 2 -22 -2 -29 -11z"/>
<path d="M5800 7889 c-184 -37 -336 -68 -337 -69 -7 -1 -2 -130 5 -130 28 0
719 133 725 139 5 5 -3 27 -17 50 -14 22 -26 44 -25 48 3 17 -1 33 -8 32 -5
-1 -159 -32 -343 -70z m65 -55 c3 -25 4 -48 1 -51 -3 -3 -22 -6 -43 -7 l-38
-1 -3 53 -3 52 39 0 c39 0 40 0 47 -46z"/>
<path d="M5013 7898 c-4 -7 -9 -26 -10 -43 -2 -16 -4 -39 -5 -49 -3 -20 10
-26 85 -40 26 -5 37 -4 33 3 -4 5 -1 31 5 56 11 45 13 47 42 41 16 -3 33 -6
37 -6 4 0 3 -22 -3 -50 -9 -47 -12 -50 -41 -51 -24 0 190 -56 227 -58 4 -1 7
29 5 66 l-3 67 -170 37 c-196 44 -191 43 -202 27z"/>
<path d="M5808 7722 l-348 -66 0 -86 0 -86 388 68 c213 37 393 68 400 68 20 0
14 29 -12 55 -14 14 -26 41 -30 69 -6 39 -11 46 -29 45 -12 -1 -178 -31 -369
-67z m82 -71 c0 -48 0 -49 -36 -56 -20 -3 -37 -5 -39 -3 -1 2 -5 27 -8 56 l-6
52 44 0 45 0 0 -49z"/>
<path d="M4963 7748 c0 -7 -12 -32 -27 -56 -15 -23 -24 -48 -20 -54 4 -6 7
-20 8 -32 1 -19 22 -25 234 -72 l232 -50 0 86 0 86 -197 48 c-109 27 -205 51
-214 53 -9 3 -16 -2 -16 -9z m196 -78 c10 0 12 -9 7 -37 -13 -70 -13 -70 -53
-64 -39 7 -39 6 -23 70 9 38 14 42 33 37 12 -3 28 -6 36 -6z"/>
<path d="M6020 5344 c0 -4 14 -30 30 -59 24 -43 46 -63 106 -100 49 -31 91
-49 118 -52 66 -8 187 14 213 39 13 12 21 24 18 26 -3 3 -53 11 -112 18 -113
13 -201 43 -308 104 -54 31 -65 35 -65 24z"/>
<path d="M4413 5195 l34 -35 139 0 c76 0 200 -4 274 -10 74 -5 268 -16 430
-25 162 -9 318 -18 347 -20 35 -3 55 0 63 10 9 10 4 15 -22 23 -88 28 -253 40
-778 58 -261 8 -482 20 -492 25 -31 16 -29 9 5 -26z"/>
<path d="M5366 4990 c-54 -16 -101 -31 -103 -34 -3 -2 14 -16 36 -30 84 -53
227 -61 262 -15 26 34 24 39 -18 39 -35 0 -36 0 -18 20 10 11 27 22 38 26 16
5 17 8 6 15 -25 16 -103 8 -203 -21z"/>
<path d="M7035 4760 c-22 -5 -108 -9 -191 -9 -110 -1 -155 -5 -169 -15 -41
-30 13 -37 338 -41 257 -4 328 -2 402 11 201 36 160 56 -124 60 -119 2 -234
-1 -256 -6z"/>
<path d="M5720 4753 c-49 -8 -119 -34 -130 -48 -20 -24 26 -28 107 -10 92 21
195 16 373 -15 158 -27 241 -34 260 -20 28 19 -14 36 -122 49 -57 6 -141 19
-188 27 -86 16 -254 26 -300 17z"/>
<path d="M6815 4653 c-65 -5 -105 -13 -105 -21 0 -12 123 -32 192 -32 146 0
187 29 69 49 -39 6 -80 10 -93 9 -13 -1 -41 -3 -63 -5z"/>
<path d="M5705 4643 c-29 -7 -57 -35 -47 -45 5 -5 45 -11 88 -13 44 -2 89 -7
102 -10 13 -4 28 -2 37 5 13 11 12 15 -10 35 -18 18 -40 25 -87 28 -35 3 -72
3 -83 0z"/>
<path d="M6830 4540 c-8 -5 -33 -10 -55 -10 -40 0 -75 -14 -64 -25 4 -3 86 -7
182 -8 150 -2 178 0 192 14 15 15 7 16 -97 22 -63 3 -120 8 -128 11 -8 3 -22
1 -30 -4z"/>
<path d="M5701 4499 c-34 -7 -70 -34 -59 -44 3 -3 21 -8 40 -11 35 -6 108 17
108 35 0 16 -53 28 -89 20z"/>
<path d="M6614 3961 c-38 -23 -74 -94 -74 -145 0 -39 19 -84 44 -105 14 -12
14 -16 -4 -38 -11 -14 -20 -38 -20 -53 0 -25 4 -28 38 -33 20 -2 160 -5 310
-6 l272 -2 0 36 0 35 -212 0 -212 0 55 28 c45 23 57 34 73 73 35 86 -1 182
-81 215 -49 21 -151 18 -189 -5z m167 -70 c41 -42 41 -98 -2 -140 -34 -35 -76
-46 -46 -13 21 23 22 90 2 119 -8 12 -31 27 -50 33 -46 15 -35 30 21 30 37 0
51 -6 75 -29z m-121 -71 c16 -30 2 -72 -24 -68 -23 3 -43 46 -33 72 9 22 44
20 57 -4z"/>
<path d="M7237 3803 c-15 -82 -27 -158 -27 -170 0 -39 41 -75 95 -84 28 -4
115 -20 194 -34 79 -14 146 -23 149 -21 9 9 70 371 64 378 -4 3 -23 9 -42 13
l-36 6 -26 -157 c-15 -86 -29 -158 -31 -161 -3 -2 -34 1 -69 7 l-65 12 13 81
c25 156 36 238 33 241 -2 2 -22 6 -45 9 l-41 7 -22 -132 c-27 -156 -34 -178
-60 -178 -40 0 -42 20 -15 169 15 78 24 144 22 146 -2 3 -18 7 -34 11 l-30 6
-27 -149z"/>
<path d="M6103 3870 l-22 -9 21 -73 c53 -188 66 -238 60 -242 -13 -8 -173 -48
-176 -45 -1 2 -22 75 -46 161 -43 157 -43 158 -69 151 -63 -15 -62 -3 -7 -200
28 -100 54 -185 58 -188 5 -5 336 80 344 88 1 1 -21 84 -49 185 -54 196 -54
196 -114 172z"/>
<path d="M7745 3665 c-27 -102 -46 -187 -44 -189 2 -3 15 -7 29 -11 25 -6 25
-4 66 152 l41 158 34 -3 c19 -1 37 -6 40 -10 4 -4 -13 -78 -36 -165 -23 -87
-39 -159 -36 -161 3 -2 22 -6 42 -10 l37 -6 22 82 c12 46 31 118 42 160 l21
78 39 -7 c39 -6 40 -5 36 23 -3 27 -7 30 -123 60 -66 18 -129 33 -141 33 -19
1 -26 -17 -69 -184z"/>
<path d="M5560 3827 c-50 -16 -126 -93 -139 -142 -15 -55 -14 -89 5 -156 31
-112 116 -178 227 -179 93 0 178 48 192 110 9 39 -22 108 -56 125 -104 54
-208 -45 -155 -147 14 -26 14 -28 -6 -28 -32 0 -92 69 -111 129 -19 60 -22
142 -7 172 14 26 30 24 30 -4 0 -56 71 -104 130 -87 79 23 109 69 90 139 -19
72 -100 100 -200 68z m106 -71 c19 -30 15 -65 -9 -80 -15 -9 -22 -7 -38 13
-23 28 -24 54 -3 75 21 22 31 20 50 -8z m84 -247 c25 -45 -9 -89 -45 -59 -15
13 -20 61 -8 73 13 14 43 6 53 -14z"/>
<path d="M5085 3735 c-21 -21 -26 -31 -21 -53 18 -74 108 -84 144 -15 17 31
15 41 -13 68 -32 33 -74 32 -110 0z"/>
<path d="M8155 3726 c-41 -18 -88 -66 -110 -112 -26 -56 -32 -166 -11 -200 22
-32 81 -58 118 -50 20 4 28 1 28 -8 0 -8 47 -27 130 -52 73 -21 130 -43 130
-50 0 -7 -9 -40 -19 -73 l-19 -61 27 -6 c14 -3 33 -8 41 -10 13 -3 33 49 97
252 79 250 80 256 59 263 -66 25 -58 35 -111 -134 -26 -85 -51 -155 -53 -155
-3 0 -32 7 -64 16 l-59 17 19 21 c28 30 50 77 62 131 21 95 -24 171 -122 205
-66 23 -101 25 -143 6z m125 -71 c16 -8 34 -24 40 -34 25 -48 2 -141 -47 -193
-36 -38 -45 -35 -27 9 30 71 -11 144 -92 159 -41 8 -40 21 6 52 38 26 79 28
120 7z m-132 -127 c27 -27 2 -98 -34 -98 -35 0 -40 80 -5 100 21 12 25 12 39
-2z"/>
<path d="M5298 3628 c-16 -5 -28 -13 -28 -16 0 -4 23 -71 50 -150 28 -79 50
-146 50 -150 0 -8 -147 -62 -166 -62 -6 0 -34 70 -64 156 -40 119 -56 154 -67
149 -8 -3 -26 -8 -39 -11 -13 -3 -24 -11 -24 -17 0 -10 119 -358 124 -364 7
-8 336 111 336 121 0 32 -119 351 -131 353 -8 1 -26 -3 -41 -9z"/>
<path d="M4807 3468 c-47 -13 -92 -57 -100 -98 -5 -22 4 -64 28 -139 19 -59
35 -113 35 -118 0 -10 -60 -37 -65 -31 -1 2 -26 73 -55 158 -29 85 -54 156
-55 158 -3 4 -69 -20 -79 -29 -5 -4 19 -89 54 -193 49 -146 65 -183 77 -179
13 5 13 2 4 -15 -17 -32 -13 -58 13 -89 l24 -28 68 18 c124 33 184 74 184 125
0 18 6 20 48 19 44 -2 47 0 47 23 0 20 -5 25 -25 25 -31 0 -39 32 -12 51 31
21 45 68 40 136 -9 149 -110 239 -231 206z m120 -102 c31 -33 53 -88 53 -133
0 -30 -37 -69 -82 -88 l-36 -15 -37 110 c-20 60 -35 117 -33 127 4 24 47 44
78 38 14 -3 39 -21 57 -39z m-96 -335 l32 -19 -28 -26 c-30 -28 -100 -54 -113
-42 -4 4 2 14 13 22 17 13 18 17 7 35 -16 26 -21 22 55 48 2 1 17 -8 34 -18z"/>
<path d="M9057 3473 c-3 -4 -13 -36 -22 -70 -15 -54 -21 -63 -41 -63 -12 0
-36 -11 -53 -25 -56 -48 -66 -142 -20 -191 l22 -24 -27 0 c-34 0 -82 -24 -90
-45 -18 -48 1 -85 44 -85 30 0 50 17 50 42 0 24 16 23 135 -7 84 -21 107 -24
152 -16 68 13 97 33 123 85 41 87 15 163 -69 197 l-49 21 11 34 c12 39 11 39
68 19 46 -17 59 -10 59 30 0 17 -20 26 -133 59 -72 21 -137 41 -143 43 -7 2
-14 1 -17 -4z m84 -96 c1 -4 -2 -21 -6 -38 -6 -25 -10 -29 -28 -23 -30 9 -30
9 -17 48 9 29 15 34 31 27 11 -4 20 -10 20 -14z m-70 -109 c43 -12 44 -18 11
-88 -14 -29 -23 -35 -54 -38 -28 -2 -40 2 -52 20 -20 29 -20 67 0 96 17 25 39
27 95 10z m181 -70 c29 -33 4 -100 -49 -135 -28 -19 -99 -21 -117 -3 -7 7 -5
10 6 10 28 0 66 47 84 104 15 49 20 55 38 50 12 -3 29 -15 38 -26z"/>
<path d="M10345 3342 c-55 -11 -76 -86 -33 -116 68 -48 155 14 118 84 -11 21
-56 38 -85 32z"/>
<path d="M9565 3133 c-27 -101 -46 -186 -43 -189 3 -2 19 -9 36 -13 l30 -9 39
156 40 157 33 -3 c19 -1 36 -4 38 -6 2 -2 -15 -73 -37 -158 -22 -84 -37 -156
-33 -160 4 -3 24 -9 44 -13 41 -8 40 -9 69 122 10 41 16 53 31 53 103 0 98
-185 -6 -234 -59 -28 -173 -13 -266 34 -88 45 -105 69 -105 148 1 82 21 123
74 154 38 22 39 23 25 50 -8 15 -18 28 -23 28 -13 0 -82 -50 -102 -73 -40 -49
-56 -206 -26 -263 41 -78 143 -134 287 -155 95 -14 143 -9 203 20 78 38 124
161 98 258 -13 49 -48 80 -108 96 -34 9 -43 16 -43 33 0 30 13 37 44 23 30
-14 31 -14 39 27 l6 30 -149 35 -148 35 -47 -183z"/>
<path d="M4255 3291 c-16 -4 -44 -15 -62 -24 -18 -9 -48 -17 -67 -17 -96 0
-207 -78 -222 -155 -17 -94 17 -214 72 -250 53 -34 143 -6 165 53 8 22 10 22
31 8 47 -33 148 -13 182 36 16 22 16 22 31 3 8 -11 15 -23 15 -27 0 -4 21 7
46 24 109 74 110 233 2 321 -30 24 -48 30 -100 33 -35 2 -76 0 -93 -5z m102
-70 c45 -21 68 -49 83 -102 13 -43 -3 -103 -33 -124 -31 -22 -36 -19 -30 19 9
59 -15 133 -58 178 -22 23 -39 43 -39 45 0 9 39 1 77 -16z m-265 -101 l-4 -65
-42 0 c-22 0 -51 -4 -64 -8 -21 -8 -22 -6 -16 20 10 44 36 76 84 100 24 13 44
22 45 20 1 -1 0 -31 -3 -67z m142 39 c87 -69 82 -241 -6 -213 -46 14 -85 163
-58 215 14 25 31 24 64 -2z m-191 -187 c40 -44 10 -106 -32 -68 -23 21 -27 56
-9 74 16 16 22 15 41 -6z"/>
<path d="M10070 3026 c0 -84 -3 -174 -6 -200 l-7 -46 192 0 c221 0 237 4 270
73 30 62 29 168 -2 228 -39 75 -138 110 -207 74 -50 -26 -64 -66 -68 -197 l-4
-118 -44 0 -44 0 7 163 6 164 -24 6 c-13 4 -34 7 -46 7 -23 0 -23 -1 -23 -154z
m365 60 c51 -51 58 -170 12 -221 -23 -25 -32 -28 -85 -26 l-34 1 4 118 c3 128
12 152 55 152 13 0 35 -11 48 -24z"/>
<path d="M3354 3146 c-17 -8 -42 -29 -55 -47 -20 -29 -24 -46 -24 -107 0 -68
2 -75 28 -98 26 -22 27 -26 13 -40 -9 -9 -16 -32 -16 -56 l0 -40 233 6 c127 4
265 9 305 12 l72 6 0 33 0 32 -87 -3 c-49 -2 -142 -5 -208 -8 l-119 -4 36 19
c61 31 88 72 88 135 0 76 -27 126 -83 153 -50 24 -135 28 -183 7z m146 -73
c45 -40 50 -90 15 -131 -15 -18 -36 -37 -47 -43 -18 -10 -19 -9 -4 20 9 16 16
44 16 61 0 40 -47 90 -85 90 -23 0 -26 2 -15 15 21 26 85 19 120 -12z m-110
-107 c0 -39 -22 -53 -45 -30 -18 19 -20 71 -2 77 25 9 47 -13 47 -47z"/>
<path d="M25410 12030 c-127 -22 -227 -76 -326 -174 -199 -200 -228 -502 -69
-736 81 -120 208 -209 350 -245 77 -19 221 -19 298 1 207 53 380 225 432 429
20 77 19 211 -1 289 -76 293 -381 488 -684 436z m280 -70 c224 -76 370 -278
370 -509 -1 -164 -43 -266 -159 -381 -116 -115 -234 -164 -396 -163 -192 1
-378 109 -473 275 -38 66 -72 190 -72 262 1 244 174 463 420 531 78 21 225 14
310 -15z"/>
<path d="M25145 11800 c3 -5 21 -10 40 -10 64 0 65 -7 65 -346 l0 -303 -26
-20 c-15 -12 -40 -21 -56 -21 -17 0 -27 -4 -23 -10 4 -6 68 -10 161 -10 96 0
154 4 154 10 0 6 -13 10 -29 10 -16 0 -39 9 -52 19 -23 18 -24 26 -27 160 l-4
141 45 0 44 0 124 -170 124 -170 98 0 c53 0 97 4 97 8 0 5 -19 14 -42 21 -23
7 -52 20 -65 28 -19 13 -196 239 -226 290 -5 7 10 17 42 28 60 20 117 78 127
130 20 106 -41 189 -157 214 -65 14 -423 15 -414 1z m386 -53 c68 -45 90 -143
46 -208 -32 -48 -98 -79 -169 -79 l-58 0 0 149 c0 110 3 151 13 154 6 3 39 6
73 6 48 1 68 -4 95 -22z"/>
<path d="M14850 11111 l0 -48 62 -13 c92 -18 166 -48 207 -86 43 -38 114 -163
202 -354 34 -74 358 -810 720 -1634 362 -824 662 -1502 668 -1505 5 -4 26 -6
46 -6 l36 1 660 1440 c695 1518 785 1707 878 1850 97 149 238 260 375 295 l46
11 0 49 0 49 -600 0 -600 0 0 -50 0 -50 49 0 c71 0 211 -26 267 -50 88 -38
145 -110 159 -200 9 -66 -18 -185 -79 -335 -65 -161 -827 -1845 -835 -1845 -6
0 -818 1863 -897 2058 -79 194 -70 272 36 324 62 31 157 48 278 48 l83 0 -3
48 -3 47 -877 3 -878 2 0 -49z"/>
<path d="M19067 11153 c-4 -3 -7 -26 -7 -50 l0 -43 93 0 c164 0 271 -32 345
-103 47 -45 59 -71 71 -161 14 -102 15 -2781 1 -2879 -11 -74 -44 -149 -82
-184 -61 -58 -193 -92 -350 -93 l-78 0 0 -45 0 -45 960 0 960 0 0 44 0 43
-117 6 c-167 8 -236 31 -316 106 -55 51 -66 77 -77 188 -17 154 -8 2856 9
2907 32 95 100 162 195 192 29 9 105 18 179 21 l127 6 0 48 0 49 -953 0 c-525
0 -957 -3 -960 -7z"/>
<path d="M21457 11153 c-4 -3 -7 -224 -7 -490 l0 -483 50 0 c32 0 52 5 54 13
2 6 15 61 30 122 62 254 211 472 379 555 123 60 197 72 460 77 l238 5 -3
-1523 c-3 -1404 -5 -1528 -20 -1574 -49 -142 -154 -201 -380 -212 l-118 -6 0
-43 0 -44 960 0 960 0 0 45 0 45 -77 0 c-221 1 -363 62 -417 180 -21 45 -21
48 -24 1588 l-2 1542 202 0 c306 0 409 -22 543 -113 150 -103 254 -268 331
-527 l38 -130 48 0 48 0 -2 488 -3 487 -1641 3 c-902 1 -1644 -1 -1647 -5z"/>
<path d="M12940 6650 l0 -80 7545 0 7545 0 0 80 0 80 -7545 0 -7545 0 0 -80z"/>
<path d="M19435 6150 c-184 -26 -351 -101 -468 -210 -174 -163 -253 -352 -250
-605 3 -318 162 -572 438 -705 138 -67 224 -84 415 -84 194 1 270 17 415 88
259 128 412 363 432 662 20 301 -113 570 -358 727 -124 79 -280 124 -454 131
-60 3 -137 1 -170 -4z m255 -56 c121 -27 224 -103 305 -224 172 -258 190 -670
42 -970 -72 -148 -212 -268 -348 -299 -62 -15 -195 -13 -254 3 -143 38 -263
143 -339 297 -76 155 -90 222 -90 444 -1 168 2 200 22 273 100 367 351 547
662 476z"/>
<path d="M24070 5542 c-266 -671 -321 -793 -384 -856 -39 -40 -97 -66 -145
-66 -21 0 -40 -25 -27 -37 6 -7 473 -11 494 -5 18 6 15 30 -5 35 -10 3 -36 8
-58 12 -52 9 -92 30 -106 57 -18 33 -5 89 65 278 l64 175 295 3 295 2 40 -104
c83 -213 106 -308 88 -364 -9 -28 -61 -52 -113 -52 -21 0 -45 -5 -53 -10 -13
-9 -13 -12 1 -23 12 -9 95 -12 330 -10 173 1 317 2 322 2 4 1 7 7 7 15 0 17
-22 26 -60 26 -72 0 -126 44 -175 140 -18 36 -149 365 -291 733 l-258 667 -41
0 -40 0 -245 -618z m460 -334 c0 -5 -119 -8 -265 -8 -146 0 -265 4 -265 8 0 7
228 577 261 652 10 22 24 -11 140 -310 71 -184 129 -338 129 -342z"/>
<path d="M13215 6111 c-12 -21 5 -28 74 -34 87 -7 123 -26 147 -74 18 -36 19
-71 19 -658 0 -605 0 -621 -20 -655 -27 -45 -77 -70 -142 -70 -28 0 -58 -3
-67 -6 -19 -7 -21 -34 -3 -35 100 -6 772 -3 860 3 244 18 413 97 475 222 72
144 43 333 -68 443 -77 76 -220 134 -368 149 -72 8 -70 16 6 32 226 50 355
237 298 433 -32 112 -112 182 -260 228 -80 25 -85 25 -513 29 -298 2 -433 0
-438 -7z m783 -58 c75 -23 145 -88 171 -159 29 -76 29 -212 0 -288 -26 -71
-88 -127 -172 -156 -78 -26 -259 -39 -282 -20 -23 19 -23 601 1 620 38 32 181
34 282 3z m12 -697 c107 -19 172 -50 224 -106 60 -64 80 -132 79 -265 -1 -203
-82 -315 -253 -351 -131 -28 -259 -6 -312 53 -44 49 -48 78 -48 377 0 261 1
286 18 295 24 15 203 13 292 -3z"/>
<path d="M15805 6110 c-12 -19 4 -27 66 -34 78 -8 105 -25 132 -84 22 -46 22
-54 22 -637 0 -439 -3 -600 -12 -630 -19 -60 -61 -96 -120 -102 -75 -7 -93
-12 -93 -28 0 -18 -39 -16 345 -17 232 -1 329 2 337 10 18 18 3 25 -68 33 -48
5 -72 13 -91 30 -54 50 -57 70 -61 392 l-4 297 427 0 427 0 -4 -297 c-3 -287
-4 -300 -26 -345 -27 -54 -68 -78 -134 -78 -53 0 -78 -14 -61 -31 9 -9 98 -12
343 -12 182 0 333 3 336 6 4 3 4 13 1 22 -5 11 -21 15 -60 15 -62 0 -113 28
-136 74 -27 57 -32 192 -29 718 3 521 3 534 25 580 27 59 52 75 133 85 48 6
65 12 65 23 0 13 -45 15 -340 15 -296 0 -340 -2 -340 -15 0 -11 17 -17 65 -22
75 -8 107 -28 135 -84 18 -36 20 -63 23 -311 l4 -273 -426 0 -426 0 0 234 c0
369 17 416 160 433 48 6 65 12 65 23 0 13 -45 15 -337 18 -219 1 -339 -1 -343
-8z"/>
<path d="M21552 6103 c2 -14 18 -20 68 -26 75 -9 103 -24 127 -70 17 -30 18
-78 18 -657 0 -610 0 -626 -20 -660 -26 -44 -77 -70 -138 -70 -34 0 -49 -5
-54 -15 -3 -9 -3 -19 1 -22 8 -9 661 -7 675 2 23 14 -10 35 -56 35 -67 0 -108
22 -135 72 -22 41 -23 53 -26 321 l-4 277 64 0 c35 0 86 2 113 5 28 2 80 6
117 9 209 16 369 108 434 249 25 55 29 74 29 162 0 93 -2 105 -33 167 -39 80
-91 128 -187 174 -123 58 -178 64 -610 64 -363 0 -386 -1 -383 -17z m734 -49
c88 -24 144 -69 184 -148 35 -69 35 -70 35 -200 0 -120 -2 -135 -26 -186 -61
-128 -163 -175 -369 -168 l-95 3 -2 340 c-2 187 1 346 6 354 20 32 162 34 267
5z"/>
<path d="M26260 6101 c0 -15 10 -19 58 -24 78 -7 110 -24 135 -71 22 -41 22
-47 24 -641 2 -546 1 -604 -15 -649 -22 -63 -55 -88 -124 -93 -29 -2 -63 -6
-75 -9 -27 -5 -31 -34 -5 -35 136 -4 1328 3 1333 8 4 5 9 91 11 193 3 175 2
185 -16 185 -14 0 -24 -18 -45 -82 -15 -46 -36 -95 -47 -110 -36 -49 -103 -92
-177 -115 -63 -20 -94 -23 -237 -23 -103 0 -180 5 -206 12 -57 18 -104 52
-128 93 -21 34 -21 48 -21 630 0 563 1 597 19 633 23 47 62 68 138 74 48 5 58
9 58 24 0 18 -15 19 -340 19 -325 0 -340 -1 -340 -19z"/>
<path d="M19355 3626 c-70 -11 -89 -28 -38 -34 53 -6 53 -7 53 -409 0 -205 3
-373 7 -373 4 0 19 11 34 25 l26 26 53 -33 c133 -82 322 -22 377 120 23 60 23
182 1 233 -24 55 -84 116 -133 135 -63 24 -183 17 -224 -14 -17 -12 -33 -22
-36 -22 -3 0 -5 81 -5 180 l0 180 -22 -1 c-13 -1 -54 -7 -93 -13z m336 -349
c54 -35 82 -104 83 -201 2 -144 -43 -232 -129 -255 -66 -17 -143 9 -164 56
-14 31 -14 338 0 364 31 59 146 79 210 36z"/>
<path d="M20043 3627 c-50 -7 -73 -14 -73 -23 0 -8 10 -14 24 -14 59 0 56 20
56 -376 l0 -363 -22 -15 c-12 -9 -30 -16 -40 -16 -10 0 -18 -4 -18 -8 0 -5 61
-9 135 -9 74 0 135 4 135 8 0 5 -9 9 -21 9 -11 0 -29 5 -40 10 -18 10 -19 23
-19 181 0 191 8 222 64 262 47 34 126 31 163 -6 l28 -27 3 -185 c2 -118 -1
-191 -8 -204 -6 -11 -25 -23 -45 -27 -71 -13 -32 -21 100 -21 74 0 135 4 135
8 0 5 -11 9 -24 9 -49 0 -56 28 -56 223 0 145 -3 186 -16 213 -24 49 -77 74
-159 74 -71 0 -111 -15 -157 -58 l-28 -26 0 197 0 197 -22 -1 c-13 -1 -56 -6
-95 -12z"/>
<path d="M22675 3626 c-70 -11 -89 -28 -38 -34 53 -6 53 -9 53 -383 0 -382 1
-373 -61 -386 -63 -12 -22 -20 106 -20 74 0 135 4 135 8 0 5 -11 9 -24 9 -56
0 -56 -3 -56 426 l0 394 -22 -1 c-13 -1 -54 -7 -93 -13z"/>
<path d="M18693 3585 c-47 -33 -19 -115 39 -115 25 0 58 36 58 63 0 51 -56 81
-97 52z"/>
<path d="M24750 3582 c-43 -35 -15 -112 39 -112 26 0 61 38 61 65 0 24 -41 65
-65 65 -7 0 -23 -8 -35 -18z"/>
<path d="M19042 3405 c-17 -25 -49 -57 -71 -72 -48 -34 -51 -43 -11 -43 l30 0
0 -202 c0 -222 8 -259 60 -285 30 -15 118 -17 154 -3 28 10 66 45 66 60 0 18
-26 10 -50 -15 -30 -32 -79 -34 -106 -4 -17 19 -19 41 -22 235 l-3 214 70 0
c56 0 71 3 71 15 0 12 -14 15 -70 15 l-70 0 0 65 c0 36 -4 65 -8 65 -5 0 -22
-20 -40 -45z"/>
<path d="M18680 3313 c-72 -17 -100 -33 -56 -33 15 0 36 -5 47 -10 18 -10 19
-23 19 -206 0 -113 -4 -203 -10 -214 -6 -11 -26 -22 -45 -26 -71 -13 -32 -21
100 -21 74 0 135 4 135 8 0 5 -11 9 -23 9 -13 0 -31 8 -40 18 -15 16 -17 49
-17 255 l0 237 -22 -1 c-13 0 -52 -8 -88 -16z"/>
<path d="M20835 3306 c-56 -26 -119 -90 -142 -145 -9 -20 -16 -65 -16 -101 0
-144 110 -259 258 -268 76 -5 130 9 191 51 71 47 106 110 112 200 4 60 0 82
-18 125 -25 58 -82 115 -144 143 -61 28 -176 26 -241 -5z m210 -15 c50 -28 79
-99 83 -206 5 -118 -13 -187 -62 -234 -31 -30 -44 -35 -93 -38 -74 -5 -119 18
-153 78 -23 40 -25 54 -25 169 0 107 3 131 21 164 45 87 142 115 229 67z"/>
<path d="M21408 3312 c-65 -19 -83 -32 -45 -32 57 0 57 1 57 -389 0 -386 2
-369 -55 -389 -24 -8 -2 -10 105 -10 107 0 129 2 105 10 -55 20 -55 19 -55
191 0 153 1 159 18 144 48 -44 159 -61 233 -35 58 19 117 67 146 116 25 42 28
57 28 137 0 74 -4 98 -22 131 -50 95 -129 143 -230 144 -77 0 -108 -11 -155
-58 l-38 -36 0 47 c0 54 -2 55 -92 29z m356 -42 c50 -45 71 -107 71 -212 -1
-75 -5 -93 -30 -144 -39 -74 -77 -97 -158 -91 -113 7 -141 58 -135 252 5 135
18 173 71 205 22 14 50 20 89 20 50 0 62 -4 92 -30z"/>
<path d="M22120 3308 c-53 -27 -81 -69 -64 -95 24 -39 84 -23 84 22 0 13 9 33
19 46 17 21 28 24 90 24 85 0 107 -16 117 -87 11 -81 4 -92 -83 -128 -128 -52
-181 -80 -213 -111 -25 -26 -30 -38 -30 -79 0 -36 6 -56 23 -75 43 -51 164
-46 246 9 l49 33 11 -23 c26 -57 127 -72 174 -25 26 25 18 36 -15 20 -35 -15
-68 3 -69 39 -1 15 0 97 1 184 2 186 -8 219 -74 249 -63 28 -207 26 -266 -3z
m245 -305 c-8 -108 -15 -122 -77 -154 -81 -41 -148 -9 -148 72 0 36 6 48 38
78 29 28 161 97 191 101 2 0 0 -44 -4 -97z"/>
<path d="M23340 3308 c-76 -39 -93 -107 -30 -116 27 -4 50 20 50 53 0 47 63
73 145 61 56 -9 74 -33 82 -108 7 -69 1 -75 -120 -122 -108 -42 -180 -85 -198
-118 -22 -41 -16 -106 13 -135 50 -50 176 -41 258 18 37 27 39 27 45 9 10 -31
54 -60 92 -60 39 0 88 22 96 45 7 17 -18 21 -28 5 -9 -14 -28 -12 -51 4 -18
13 -19 28 -19 208 0 217 -2 225 -71 258 -60 30 -203 28 -264 -2z m242 -313
l-7 -100 -49 -32 c-90 -61 -166 -34 -166 60 0 34 6 46 39 77 31 30 179 105
188 96 1 -1 -1 -47 -5 -101z"/>
<path d="M23979 3297 c-106 -54 -149 -129 -149 -257 1 -147 85 -237 232 -248
109 -8 218 32 218 79 0 25 -26 25 -40 -1 -30 -56 -144 -70 -211 -25 -62 41
-84 97 -84 216 1 87 4 103 30 155 35 67 77 97 138 97 42 0 58 -13 97 -72 19
-28 55 -22 65 10 15 46 -52 79 -159 79 -64 0 -83 -4 -137 -33z"/>
<path d="M24733 3312 c-75 -16 -96 -32 -44 -32 58 0 61 -12 61 -221 0 -188 0
-190 -25 -214 -13 -14 -33 -25 -45 -25 -11 0 -20 -4 -20 -8 0 -5 61 -9 135 -9
74 0 135 4 135 8 0 5 -11 9 -24 9 -54 0 -56 11 -56 271 l0 239 -22 -1 c-13 -1
-56 -8 -95 -17z"/>
<path d="M25062 3311 c-62 -16 -76 -33 -31 -39 45 -6 49 -23 49 -220 0 -104
-4 -191 -10 -202 -6 -11 -26 -22 -45 -26 -19 -3 -33 -10 -30 -14 6 -9 265 -9
265 1 0 4 -12 9 -27 11 -44 5 -53 36 -53 198 0 131 2 150 23 190 53 106 183
123 229 30 15 -29 18 -63 18 -203 0 -165 0 -168 -25 -192 -13 -14 -33 -25 -45
-25 -11 0 -20 -4 -20 -8 0 -5 61 -9 135 -9 74 0 135 4 135 8 0 5 -11 9 -24 9
-52 0 -56 16 -56 213 0 200 -7 230 -63 271 -44 32 -162 35 -222 6 -25 -12 -56
-36 -68 -52 l-22 -30 -5 49 c-6 57 -12 59 -108 34z"/>
<path d="M15300 3312 c0 -4 15 -12 33 -17 32 -10 33 -12 115 -257 53 -156 89
-248 97 -248 13 0 37 57 112 264 21 58 40 106 43 106 3 0 39 -84 80 -185 52
-128 79 -185 89 -183 9 2 43 90 92 236 43 129 84 241 91 249 7 8 24 20 38 26
23 11 22 12 -22 15 -74 5 -147 -2 -123 -11 41 -17 50 -25 53 -45 4 -24 -99
-352 -105 -337 -2 6 -36 95 -76 198 -40 104 -77 189 -82 190 -6 1 -41 -85 -79
-191 -38 -106 -72 -189 -76 -185 -7 9 -79 238 -90 290 -9 40 11 73 46 73 13 0
24 5 24 10 0 6 -50 10 -130 10 -71 0 -130 -4 -130 -8z"/>
<path d="M16150 3310 c0 -5 8 -10 18 -10 11 0 26 -8 36 -19 9 -10 52 -124 95
-252 49 -147 83 -235 92 -237 10 -1 29 39 63 130 27 73 57 157 68 186 11 29
22 51 25 48 3 -2 38 -85 78 -183 41 -98 80 -179 87 -181 9 -2 33 59 77 190 99
301 98 297 140 316 l36 17 -47 3 c-27 2 -69 2 -95 0 l-48 -4 32 -13 c17 -7 34
-20 38 -29 6 -17 -93 -342 -105 -342 -3 0 -39 88 -79 195 -41 107 -78 195 -82
195 -4 0 -9 -6 -12 -12 -2 -7 -32 -92 -67 -188 -34 -96 -66 -179 -70 -183 -8
-9 -100 286 -100 320 0 24 26 43 59 43 12 0 21 5 21 10 0 6 -50 10 -130 10
-80 0 -130 -4 -130 -10z"/>
<path d="M16990 3312 c0 -4 15 -12 33 -17 32 -10 33 -12 115 -257 53 -156 89
-248 97 -248 13 0 36 53 111 262 22 60 41 108 44 108 3 0 39 -83 80 -185 42
-106 80 -185 87 -185 7 0 13 1 13 3 0 14 164 474 172 485 7 8 24 19 38 25 23
11 22 12 -22 15 -74 5 -147 -2 -123 -11 41 -17 50 -25 53 -45 2 -11 -20 -94
-49 -183 -40 -125 -54 -159 -61 -144 -4 11 -39 101 -77 200 -37 98 -72 180
-77 182 -5 2 -40 -85 -78 -193 -38 -107 -72 -191 -76 -187 -6 6 -68 205 -97
306 -6 24 24 57 54 57 12 0 23 5 23 10 0 6 -50 10 -130 10 -71 0 -130 -4 -130
-8z"/>
<path d="M18010 3311 c0 -5 11 -12 24 -15 20 -5 39 -42 129 -253 58 -136 110
-249 116 -251 13 -4 34 42 128 273 87 215 89 219 126 238 32 16 31 16 -60 16
-51 1 -93 -1 -93 -4 0 -3 16 -12 36 -20 34 -14 36 -17 30 -49 -7 -34 -90 -247
-118 -299 -14 -29 -15 -28 -83 147 -56 146 -66 178 -55 191 7 8 23 15 36 15
13 0 24 5 24 10 0 6 -47 10 -120 10 -66 0 -120 -4 -120 -9z"/>
<path d="M17790 2902 c-44 -36 -17 -112 41 -112 28 0 69 39 69 67 0 21 -46 63
-68 63 -11 0 -30 -8 -42 -18z"/>
<path d="M23010 2900 c-40 -40 -11 -110 45 -110 32 0 65 33 65 65 0 32 -33 65
-65 65 -14 0 -34 -9 -45 -20z"/>
<path d="M24430 2902 c-44 -36 -17 -112 41 -112 28 0 69 39 69 65 0 23 -41 65
-65 65 -12 0 -33 -8 -45 -18z"/>
</g>
</svg>
